<?xml version="1.0" encoding="utf-8"?>
<!DOCTYPE svg PUBLIC "-//W3C//DTD SVG 20010904//EN" "http://www.w3.org/TR/2001/REC-SVG-20010904/DTD/svg10.dtd">
<svg version="1.0" xmlns="http://www.w3.org/2000/svg" width="602pt" height="602pt" viewBox="0 0 602 602" style="" preserveAspectRatio="xMidYMid meet">
<g fill="#000000FC" stroke="#000000FC">
<path d="M 288.602 37.022 C 276.680 39.029 263.262 42.904 255.848 46.481 C 253.238 47.740 250.834 48.501 250.506 48.172 C 248.834 46.501 239.515 43.866 231.728 42.863 C 221.262 41.515 212.953 42.766 209.209 46.255 C 204.154 50.965 197.017 69.269 196.985 77.608 C 196.976 79.749 196.639 81.990 196.235 82.589 C 195.831 83.189 192.575 84.230 189.000 84.904 C 178.774 86.831 165.176 93.926 157.092 101.552 C 143.168 114.687 136.000 131.839 136.000 152.022 C 136.000 162.616 135.998 162.626 133.034 164.817 C 130.342 166.807 129.660 166.901 125.682 165.837 C 115.587 163.138 102.131 169.083 97.555 178.265 C 96.150 181.085 95.000 184.418 95.000 185.671 C 95.000 187.164 94.018 188.457 92.148 189.423 C 83.960 193.658 79.080 204.819 82.027 212.572 C 82.881 214.817 82.732 215.499 81.147 216.610 C 77.967 218.837 75.808 225.806 75.837 233.753 C 75.869 242.694 78.195 247.853 85.729 255.694 C 88.628 258.711 91.000 261.953 91.000 262.899 C 91.000 263.844 91.563 265.313 92.250 266.162 C 94.624 269.094 106.529 278.368 115.453 284.236 C 124.366 290.097 143.966 300.000 146.652 300.000 C 149.072 300.000 149.183 302.462 147.155 311.123 C 143.331 327.452 141.241 339.318 138.545 360.000 C 136.794 373.436 134.801 404.132 135.090 413.204 C 135.201 416.667 134.715 421.437 134.010 423.805 C 132.960 427.333 132.967 428.596 134.048 430.805 C 135.612 434.001 135.327 441.972 133.492 446.369 C 131.892 450.201 128.239 475.216 127.484 487.500 C 127.180 492.450 126.208 499.656 125.324 503.513 C 123.869 509.866 123.351 510.757 119.823 512.986 C 111.827 518.039 108.234 531.420 111.823 542.776 C 115.131 553.244 122.859 561.389 135.545 567.777 C 158.262 579.218 195.718 582.374 218.948 574.806 C 230.021 571.198 242.438 562.745 247.326 555.486 C 248.522 553.710 251.372 549.798 253.660 546.792 C 266.222 530.293 279.359 503.490 292.147 468.266 L 295.500 459.031 312.019 459.016 L 328.537 459.000 333.447 472.250 C 340.638 491.659 347.270 506.894 354.619 520.887 C 360.514 532.113 363.126 536.262 374.519 552.500 C 382.531 563.918 397.250 573.493 411.500 576.557 C 439.597 582.597 478.043 576.393 497.472 562.684 C 506.135 556.570 512.080 547.843 513.498 539.157 C 515.143 529.083 510.185 515.293 503.821 512.243 C 500.019 510.421 498.486 504.578 496.538 484.500 C 495.631 475.150 494.239 463.963 493.444 459.640 C 491.253 447.713 490.943 448.379 499.011 447.702 C 512.957 446.533 524.500 438.120 531.083 424.326 C 540.079 405.477 532.455 382.752 513.795 372.795 C 510.050 370.796 508.060 370.503 498.249 370.501 L 486.999 370.500 486.553 367.500 C 486.308 365.850 485.866 362.250 485.572 359.500 C 484.245 347.081 480.618 326.287 477.376 312.500 C 474.594 300.673 474.160 301.514 485.558 296.655 C 498.567 291.108 509.996 284.126 522.750 273.933 C 530.363 267.849 533.000 265.155 533.000 263.460 C 533.000 262.050 535.051 259.077 538.366 255.681 C 541.317 252.658 544.805 248.006 546.116 245.343 C 550.563 236.309 548.743 221.181 542.594 216.078 C 541.456 215.134 541.303 214.302 542.021 212.961 C 545.371 206.701 540.327 193.738 533.107 190.055 C 529.726 188.330 529.155 187.521 528.571 183.623 C 528.203 181.171 526.607 177.377 525.024 175.192 C 519.829 168.020 506.078 163.334 498.025 165.992 C 494.573 167.131 493.971 167.038 491.122 164.932 C 488.071 162.677 488.000 162.438 488.000 154.496 C 488.000 133.670 481.340 116.999 467.627 103.500 C 458.589 94.603 449.192 89.295 436.568 85.955 C 422.289 82.178 423.540 83.022 423.183 76.928 C 422.577 66.589 415.460 48.658 410.733 45.561 C 409.490 44.747 406.054 43.562 403.097 42.927 C 396.435 41.499 381.682 43.141 375.845 45.961 C 371.964 47.836 371.938 47.835 366.008 45.425 C 342.581 35.906 313.791 32.780 288.602 37.022 M 138.730 175.366 C 139.957 179.407 142.815 185.490 145.081 188.884 C 152.297 199.689 166.457 209.264 177.919 211.088 C 180.989 211.576 185.525 212.412 188.000 212.944 C 190.475 213.477 195.650 213.933 199.500 213.957 C 213.385 214.045 229.799 218.858 241.202 226.185 C 248.341 230.773 251.362 233.606 250.536 234.941 C 250.225 235.444 250.907 236.153 252.051 236.516 C 253.618 237.014 255.929 235.800 261.417 231.596 C 269.229 225.613 273.411 223.775 284.458 221.472 C 296.859 218.886 305.601 218.700 324.500 220.619 C 337.961 221.986 350.065 222.422 372.500 222.348 C 399.825 222.257 403.704 222.029 416.000 219.781 C 423.425 218.424 431.000 216.537 432.834 215.587 C 434.668 214.638 437.547 213.822 439.233 213.774 C 443.119 213.664 455.484 209.076 461.722 205.430 C 468.262 201.608 477.135 192.488 479.892 186.756 C 481.146 184.146 482.533 181.789 482.972 181.517 C 483.412 181.245 484.565 178.093 485.534 174.512 C 486.504 170.930 487.688 168.000 488.166 168.000 C 490.130 168.000 496.228 175.636 500.782 183.798 C 510.952 202.024 517.840 218.954 525.931 245.611 C 528.896 255.378 529.653 261.135 528.402 264.395 C 526.768 268.654 487.926 292.168 475.250 296.571 C 471.943 297.720 470.003 298.970 470.009 299.948 C 470.015 300.801 470.897 305.844 471.970 311.153 C 477.424 338.127 484.110 389.578 485.638 416.324 C 486.386 429.418 486.467 429.287 479.270 426.584 C 474.995 424.979 464.391 422.497 455.500 421.021 C 452.200 420.474 446.575 419.355 443.000 418.535 C 434.376 416.557 413.158 413.359 399.500 411.978 C 393.450 411.367 382.200 410.225 374.500 409.442 C 352.190 407.174 317.056 405.833 297.000 406.484 C 274.657 407.210 243.801 409.601 231.500 411.559 C 221.016 413.228 213.000 413.422 213.000 412.006 C 213.000 411.459 210.868 406.631 208.263 401.276 C 203.095 390.655 196.734 383.000 193.076 383.000 C 187.797 383.000 184.977 386.106 179.000 398.500 C 175.818 405.100 172.459 412.848 171.537 415.718 C 169.984 420.551 169.590 420.977 166.180 421.503 C 164.156 421.815 158.000 423.228 152.500 424.644 C 147.000 426.060 141.488 427.446 140.250 427.725 C 138.102 428.210 138.000 427.949 138.000 421.963 C 138.000 404.814 147.015 335.536 152.693 309.048 C 153.907 303.385 154.002 301.501 153.089 301.196 C 152.428 300.976 151.112 299.963 150.163 298.944 C 149.214 297.926 145.077 295.330 140.969 293.176 C 132.318 288.640 116.705 279.675 109.554 275.138 C 106.834 273.412 104.202 272.000 103.705 272.000 C 102.634 272.000 97.305 266.438 95.950 263.906 C 94.741 261.648 94.734 257.124 95.934 253.399 C 96.447 251.805 98.978 243.752 101.557 235.505 C 110.445 207.090 124.616 177.659 132.949 170.313 C 134.352 169.076 135.725 168.053 136.000 168.041 C 136.275 168.029 137.504 171.325 138.730 175.366 M 334.810 41.507 C 345.872 43.463 353.693 45.488 364.284 49.138 C 372.928 52.117 373.143 52.139 377.784 50.550 C 380.378 49.662 386.775 48.441 392.000 47.837 C 404.651 46.374 408.753 47.437 411.872 52.986 C 414.467 57.604 417.642 68.419 419.332 78.399 C 420.044 82.604 421.086 85.584 422.000 86.033 C 422.825 86.437 427.100 87.747 431.500 88.944 C 448.131 93.467 461.354 102.081 470.775 114.530 C 481.205 128.310 483.534 136.411 482.697 156.000 C 482.164 168.505 480.719 174.792 476.473 183.087 C 473.986 187.946 467.493 195.923 463.820 198.633 C 459.195 202.045 447.209 206.773 436.387 209.453 C 431.145 210.752 426.326 212.494 425.678 213.324 C 424.887 214.339 420.399 215.371 412.000 216.469 C 405.125 217.368 397.026 218.481 394.002 218.943 C 388.808 219.735 350.157 218.243 320.000 216.086 C 305.231 215.030 285.160 216.829 275.257 220.098 C 271.823 221.231 265.594 224.391 261.415 227.119 L 253.816 232.080 249.658 227.673 C 244.289 221.982 238.434 218.384 228.858 214.889 C 220.410 211.806 205.629 209.550 200.046 210.491 C 194.210 211.476 175.926 206.515 164.929 200.964 C 154.999 195.952 145.899 183.423 142.358 169.887 C 139.950 160.688 140.020 140.454 142.485 132.656 C 145.957 121.676 155.737 108.212 165.460 101.029 C 174.113 94.637 187.279 88.700 196.153 87.188 L 200.500 86.448 201.155 79.848 C 202.386 67.459 207.491 52.323 211.584 48.933 C 214.204 46.763 228.590 47.244 240.686 49.906 L 250.871 52.148 263.186 48.172 C 269.959 45.986 277.975 43.704 281.000 43.101 C 284.025 42.499 288.525 41.603 291.000 41.110 C 298.422 39.632 325.604 39.878 334.810 41.507 M 197.567 390.250 C 199.941 393.060 206.353 405.592 209.847 414.250 C 211.135 417.441 213.009 417.632 227.000 416.007 C 235.404 415.030 250.432 414.066 291.715 411.855 C 313.121 410.709 314.894 410.758 371.500 414.056 C 381.400 414.633 395.114 415.747 401.976 416.531 C 417.158 418.267 475.047 429.485 480.232 431.696 C 483.330 433.017 484.058 433.899 484.520 436.894 C 484.827 438.877 485.481 442.975 485.975 446.000 C 486.468 449.025 487.158 453.975 487.507 457.000 C 488.518 465.750 491.871 488.940 493.074 495.500 C 495.476 508.591 496.883 512.387 500.489 515.500 C 510.277 523.950 510.452 540.524 500.870 551.411 C 496.362 556.531 483.678 564.497 474.000 568.284 C 465.383 571.656 448.811 574.000 433.582 574.000 C 419.682 574.000 409.200 571.628 397.703 565.881 C 389.058 561.559 385.819 558.920 379.615 551.144 C 370.486 539.703 366.216 532.481 353.287 506.614 C 344.594 489.221 345.358 490.977 337.565 470.500 L 331.476 454.500 312.362 454.229 L 293.248 453.958 291.772 457.229 C 290.961 459.028 287.885 467.025 284.937 475.000 C 275.301 501.069 255.110 538.753 243.143 553.000 C 237.337 559.913 237.075 560.119 227.951 564.920 C 215.533 571.454 204.999 574.000 190.382 574.000 C 177.520 574.000 162.076 572.114 153.592 569.508 C 145.978 567.169 134.474 561.057 128.198 556.017 C 119.928 549.375 116.632 542.806 116.632 532.972 C 116.632 526.819 117.090 524.561 119.075 520.948 C 120.419 518.502 122.531 516.054 123.768 515.509 C 128.264 513.529 130.847 501.753 137.042 455.000 C 140.095 431.954 139.662 433.441 143.840 431.678 C 145.853 430.829 149.300 429.854 151.500 429.512 C 157.880 428.520 171.653 424.132 172.703 422.757 C 173.231 422.066 175.148 417.675 176.965 413.000 C 181.047 402.491 187.781 388.760 189.339 387.770 C 191.829 386.185 194.921 387.117 197.567 390.250 M 508.733 377.053 C 518.481 381.243 524.706 388.824 527.600 400.033 C 529.021 405.534 529.089 407.387 528.058 412.437 C 526.317 420.954 522.924 426.954 516.560 432.771 C 510.410 438.392 503.252 441.586 495.558 442.143 L 490.617 442.500 489.752 438.500 C 489.179 435.850 489.290 433.257 490.082 430.816 C 490.747 428.764 490.977 425.663 490.599 423.816 C 490.227 421.992 489.500 411.950 488.985 401.500 C 488.469 391.050 487.777 380.842 487.446 378.815 C 486.850 375.153 486.871 375.127 490.673 374.734 C 496.677 374.113 504.114 375.068 508.733 377.053 M 509.936 170.574 C 517.459 172.808 522.677 177.976 524.499 185.000 C 525.284 188.025 526.678 190.950 527.597 191.500 C 535.756 196.383 538.517 201.561 537.689 210.427 C 537.165 216.041 537.366 217.107 539.491 219.988 C 545.942 228.731 544.180 242.385 535.241 252.933 L 532.331 256.366 530.037 246.433 C 524.457 222.268 509.855 187.335 499.807 174.109 C 498.425 172.290 498.260 171.392 499.117 170.359 C 500.588 168.586 503.435 168.643 509.936 170.574 M 124.846 170.314 C 125.660 171.296 125.353 172.499 123.631 175.064 C 112.993 190.917 101.192 219.014 94.943 243.368 L 91.641 256.235 88.823 252.868 C 87.273 251.015 84.830 247.144 83.393 244.265 C 81.130 239.730 80.830 238.045 81.151 231.672 C 81.465 225.461 81.964 223.736 84.353 220.603 C 86.962 217.183 87.131 216.438 86.512 211.105 C 85.486 202.267 88.955 195.224 95.750 192.349 C 98.278 191.279 99.005 190.366 99.022 188.237 C 99.057 183.882 102.476 177.502 106.363 174.537 C 112.407 169.926 122.593 167.600 124.846 170.314 "/></g>
<g fill="#FCFCFCFC" stroke="#FCFCFCFC">
<path d="M 1.000 41.934 L 1.000 82.867 3.750 83.184 C 5.932 83.435 7.551 82.454 11.583 78.439 C 19.074 70.980 24.676 68.562 34.500 68.549 C 44.149 68.536 50.159 71.194 56.818 78.418 C 61.443 83.436 63.000 86.600 63.000 90.982 C 63.000 93.599 63.417 93.924 68.050 94.917 C 74.500 96.301 77.716 98.010 81.689 102.165 C 92.439 113.406 92.731 131.504 82.328 141.616 C 79.933 143.943 76.684 146.130 75.106 146.477 C 72.249 147.104 72.241 147.129 72.745 153.409 C 73.431 161.955 71.885 166.019 65.903 171.397 C 59.760 176.921 52.913 179.330 43.351 179.332 C 35.067 179.334 26.872 176.013 22.585 170.918 L 20.078 167.939 14.708 170.969 C 11.110 173.000 7.963 174.000 5.169 174.000 L 1.000 174.000 1.000 235.379 L 1.000 296.757 3.998 297.999 C 8.854 300.010 18.203 310.850 22.161 319.058 C 27.547 330.228 29.231 337.715 29.228 350.477 C 29.222 372.846 20.613 392.637 6.211 403.391 L 1.000 407.281 1.000 434.605 L 1.000 461.929 5.250 460.126 C 15.163 455.921 23.126 454.500 36.782 454.500 L 50.064 454.500 49.418 447.902 C 48.006 433.488 53.270 412.029 62.066 396.342 C 70.242 381.762 89.123 365.520 104.736 359.637 C 113.427 356.362 118.608 355.117 129.556 353.672 L 138.434 352.500 140.661 339.500 C 141.885 332.350 144.038 321.296 145.444 314.936 C 148.338 301.845 148.426 301.000 146.900 301.000 C 144.529 301.000 120.974 289.043 113.775 284.186 C 105.518 278.614 94.548 269.936 91.750 266.763 C 90.788 265.672 90.000 264.021 90.000 263.094 C 90.000 262.168 87.699 258.955 84.886 255.955 C 82.073 252.955 78.702 248.250 77.396 245.500 C 73.159 236.584 74.685 220.808 80.229 216.221 C 81.461 215.202 81.590 214.122 80.867 210.903 C 79.180 203.394 83.713 193.085 90.250 189.565 C 93.180 187.987 94.023 186.738 95.330 182.037 C 97.302 174.943 99.520 172.123 105.829 168.690 C 112.471 165.075 120.685 163.569 125.981 164.995 C 129.404 165.917 130.389 165.810 132.477 164.291 C 134.801 162.599 134.939 161.951 134.969 152.564 C 135.050 126.930 147.798 103.845 168.373 92.073 C 174.603 88.508 185.406 84.555 191.750 83.519 C 195.846 82.849 196.001 82.692 196.015 79.162 C 196.054 69.428 203.078 50.974 208.769 45.652 C 211.109 43.463 213.191 42.642 217.761 42.103 C 226.503 41.072 238.600 42.414 245.433 45.174 L 251.366 47.570 259.704 44.222 C 279.509 36.270 303.617 32.777 324.117 34.889 C 342.619 36.796 355.821 39.884 367.136 44.950 C 369.771 46.129 371.990 46.546 372.949 46.041 C 378.391 43.177 385.023 41.935 395.163 41.880 C 406.699 41.817 409.274 42.598 413.284 47.375 C 418.126 53.142 424.000 69.381 424.000 76.998 L 424.000 81.740 428.750 82.947 C 456.086 89.892 471.394 100.718 480.540 119.576 C 486.185 131.214 488.044 138.385 488.692 151.017 C 489.240 161.715 489.455 162.665 491.721 164.375 C 493.861 165.989 494.683 166.069 498.413 165.024 C 504.350 163.362 513.740 165.299 519.861 169.448 C 524.656 172.698 530.000 181.156 530.000 185.494 C 530.000 186.952 531.116 188.162 533.517 189.307 C 537.549 191.229 542.640 198.563 543.638 203.886 C 544.003 205.829 543.847 209.122 543.291 211.204 C 542.476 214.257 542.575 215.231 543.803 216.244 C 545.961 218.024 548.719 224.707 549.501 230.050 C 550.820 239.056 545.409 251.271 536.948 258.390 C 535.327 259.755 534.000 261.852 534.000 263.051 C 534.000 265.531 529.905 269.596 519.000 277.943 C 506.462 287.538 495.522 293.805 483.157 298.473 C 476.771 300.885 475.875 301.523 476.285 303.373 C 479.994 320.113 484.399 344.129 485.736 354.912 L 487.422 368.500 496.461 368.730 C 508.483 369.037 515.390 371.615 522.954 378.618 C 527.092 382.449 529.585 385.900 532.040 391.199 C 535.117 397.836 535.419 399.318 535.370 407.500 C 535.306 418.240 532.937 425.370 526.891 433.019 C 519.231 442.709 509.327 448.034 498.386 448.343 L 492.849 448.500 493.467 454.000 C 493.808 457.025 494.520 461.750 495.051 464.500 C 495.582 467.250 496.662 476.700 497.451 485.500 C 499.215 505.163 500.337 509.131 505.000 512.198 C 507.217 513.656 509.597 516.696 511.492 520.491 C 514.063 525.640 514.469 527.537 514.384 533.991 C 514.247 544.291 511.061 551.234 502.834 559.160 L 496.646 565.122 498.746 571.811 C 501.152 579.473 502.693 586.991 503.548 595.250 L 504.144 601.000 552.572 601.000 L 601.000 601.000 601.000 585.045 L 601.000 569.091 597.250 568.500 C 590.665 567.464 578.206 563.155 573.861 560.412 C 562.814 553.438 553.983 541.923 549.387 528.500 C 547.076 521.748 546.581 518.382 546.216 506.925 C 545.845 495.303 546.088 492.239 547.902 485.626 C 551.828 471.315 559.013 459.682 570.158 449.593 C 577.222 443.198 590.331 436.168 596.811 435.299 L 601.000 434.737 601.000 362.948 L 601.000 291.159 598.049 290.511 C 596.425 290.154 592.488 288.168 589.299 286.097 C 574.030 276.182 566.662 261.678 566.642 241.500 C 566.631 230.172 567.673 225.618 572.672 215.136 C 576.930 206.210 587.863 194.593 595.750 190.614 L 601.000 187.966 601.000 94.483 L 601.000 1.000 441.026 1.000 L 281.051 1.000 279.469 4.060 C 273.289 16.011 256.574 24.145 244.463 21.095 C 239.905 19.947 239.846 19.966 235.404 23.876 C 215.652 41.262 182.531 34.974 174.444 12.302 C 173.698 10.211 173.068 6.813 173.044 4.750 L 173.000 1.000 87.000 1.000 L 1.000 1.000 1.000 41.934 M 526.529 24.770 C 528.713 25.889 531.571 27.953 532.879 29.355 L 535.259 31.904 538.727 29.259 C 541.315 27.285 543.693 26.505 548.093 26.187 C 558.302 25.448 568.175 31.995 572.514 42.380 C 574.223 46.470 574.465 54.646 572.992 58.522 C 572.096 60.878 572.443 61.695 576.092 65.837 C 582.013 72.556 583.407 75.683 583.361 82.139 C 583.252 97.404 565.800 109.531 550.328 105.094 C 547.420 104.260 547.118 104.399 546.524 106.844 C 544.216 116.340 535.429 121.988 523.000 121.968 C 510.092 121.947 501.366 115.883 498.282 104.791 C 497.150 100.718 496.181 99.000 495.018 99.000 C 490.911 99.000 483.044 95.729 479.166 92.410 C 476.831 90.411 473.768 86.502 472.359 83.722 C 470.163 79.388 469.850 77.645 470.161 71.487 C 470.660 61.609 474.255 55.713 482.283 51.607 C 487.892 48.739 488.000 48.603 488.000 44.407 C 488.000 38.763 489.177 35.917 493.479 31.155 C 497.056 27.196 501.893 24.338 507.500 22.871 C 512.428 21.582 522.216 22.559 526.529 24.770 "/></g>
<g fill="#FCC878FC" stroke="#FCC878FC">
<path d="M 298.500 40.984 C 286.233 42.236 275.422 44.797 259.656 50.185 C 251.796 52.870 250.348 53.084 246.656 52.099 C 240.679 50.506 225.298 48.000 221.494 48.000 C 215.022 48.000 211.850 49.200 209.874 52.396 C 207.784 55.777 207.933 59.277 210.559 68.500 C 212.937 76.856 212.890 76.857 221.586 68.271 C 231.535 58.446 243.894 51.925 244.749 56.050 C 244.951 57.027 242.563 59.312 238.280 62.238 C 234.546 64.790 227.353 70.706 222.296 75.387 C 212.750 84.221 212.658 84.268 198.500 87.479 C 178.773 91.953 163.421 101.051 153.540 114.123 C 143.633 127.230 140.258 138.790 141.315 156.000 C 142.007 167.279 144.604 176.294 149.526 184.500 C 154.526 192.835 159.120 197.253 166.561 200.881 C 178.400 206.654 189.008 209.158 205.500 210.073 C 223.349 211.064 231.219 212.189 244.211 215.609 C 253.864 218.150 253.979 218.156 263.199 216.572 C 277.521 214.112 289.726 213.685 311.500 214.881 C 322.500 215.485 344.096 216.681 359.492 217.538 C 385.026 218.960 388.537 218.957 399.492 217.501 C 418.476 214.978 424.124 213.839 424.667 212.424 C 424.946 211.699 427.722 210.583 430.837 209.943 C 439.497 208.166 451.876 204.080 458.104 200.942 C 475.812 192.021 485.985 165.591 481.559 140.007 C 480.438 133.527 478.938 128.765 476.835 125.007 C 472.379 117.042 463.870 106.809 458.311 102.728 C 449.995 96.624 437.110 90.861 425.366 87.995 C 423.093 87.440 420.703 86.347 420.055 85.566 C 419.270 84.621 417.756 84.328 415.528 84.689 C 412.401 85.197 411.512 84.601 402.074 75.667 C 396.516 70.407 389.038 64.175 385.455 61.820 C 381.431 59.174 379.058 56.958 379.246 56.019 C 379.965 52.421 389.911 56.949 400.529 65.706 L 407.068 71.100 408.914 66.800 C 409.930 64.435 411.036 60.644 411.372 58.375 C 412.157 53.083 409.516 49.375 404.263 48.390 C 399.974 47.585 383.327 49.581 377.300 51.622 C 373.255 52.993 372.666 52.900 361.290 49.097 C 339.786 41.908 317.568 39.038 298.500 40.984 M 339.256 104.422 C 345.171 105.809 352.596 108.184 355.756 109.700 C 364.124 113.715 375.192 125.002 379.249 133.658 C 382.186 139.922 382.458 141.350 382.478 150.564 C 382.497 159.349 382.183 161.245 380.011 165.473 C 377.279 170.790 366.646 180.609 359.884 184.059 C 354.284 186.916 342.516 189.249 337.552 188.486 C 330.883 187.461 321.584 184.122 316.607 180.966 C 314.035 179.334 311.492 178.000 310.957 178.000 C 310.421 178.000 308.155 179.324 305.922 180.942 C 296.261 187.940 277.145 190.534 264.988 186.496 C 258.244 184.256 248.963 174.769 243.960 165.000 C 240.600 158.442 240.136 146.535 242.930 138.581 C 248.723 122.086 262.978 109.571 280.750 105.379 C 302.452 100.259 320.258 99.968 339.256 104.422 M 369.208 100.250 C 372.184 102.589 372.337 105.754 369.608 108.483 C 366.573 111.518 363.691 111.691 361.000 109.000 C 358.603 106.603 358.407 102.736 360.571 100.571 C 362.457 98.686 367.003 98.517 369.208 100.250 M 263.946 100.435 C 266.040 102.958 264.818 108.260 261.750 109.969 C 259.281 111.344 258.719 111.344 256.250 109.968 C 252.884 108.094 252.071 103.684 254.580 100.912 C 256.636 98.640 262.220 98.356 263.946 100.435 "/></g>
<g fill="#DC4030FC" stroke="#DC4030FC">
<path d="M 479.737 188.868 C 474.518 197.704 463.605 206.461 452.798 210.484 C 448.517 212.078 448.145 212.475 448.634 214.920 C 449.410 218.798 444.086 224.441 440.330 223.723 C 438.506 223.374 435.774 224.259 431.588 226.554 C 424.705 230.328 420.250 231.484 404.529 233.573 C 380.454 236.772 361.680 236.535 322.908 232.543 C 314.082 231.635 307.390 231.516 300.536 232.146 C 283.216 233.738 277.475 235.854 260.963 246.730 C 246.529 256.237 242.274 259.607 243.347 260.680 C 243.770 261.103 247.006 261.319 250.539 261.160 C 256.274 260.903 257.233 261.142 259.481 263.391 C 265.066 268.975 261.403 277.500 252.938 278.618 C 248.705 279.177 248.101 278.961 244.571 275.632 C 241.387 272.629 240.841 271.535 241.224 268.928 C 241.593 266.416 241.242 265.612 239.416 264.780 C 237.429 263.874 236.209 264.529 229.456 270.124 C 214.264 282.712 209.731 286.000 207.571 286.000 C 204.881 286.000 201.000 282.554 201.000 280.165 C 201.000 278.119 215.711 262.944 221.344 259.179 C 224.885 256.812 225.047 256.508 223.403 255.305 C 220.865 253.450 220.178 253.636 217.408 256.926 C 214.272 260.653 209.774 261.737 206.459 259.565 C 205.107 258.679 204.000 256.987 204.000 255.806 C 204.000 254.624 203.235 252.812 202.300 251.779 C 198.287 247.345 202.057 238.000 207.859 238.000 C 209.239 238.000 212.251 237.089 214.552 235.975 C 217.841 234.382 219.302 234.164 221.380 234.955 C 225.140 236.384 226.687 240.212 225.183 244.370 C 223.609 248.723 223.648 248.934 226.202 249.879 C 228.276 250.646 234.132 248.213 235.487 246.021 C 235.751 245.594 234.287 242.151 232.234 238.372 C 228.817 232.083 227.948 231.223 221.994 228.230 C 216.510 225.473 213.370 224.711 201.994 223.372 C 183.259 221.168 183.952 221.162 187.744 223.500 C 189.528 224.600 190.990 226.036 190.994 226.691 C 191.011 229.980 183.815 230.115 180.382 226.889 C 178.368 224.997 178.000 223.691 178.000 218.434 C 178.000 212.484 177.882 212.187 175.250 211.533 C 165.694 209.156 152.302 200.021 146.064 191.625 C 144.174 189.081 142.374 187.003 142.064 187.008 C 141.119 187.020 128.452 210.839 123.456 222.000 C 117.517 235.267 107.818 261.834 108.206 263.770 C 108.714 266.304 134.642 277.230 148.000 280.540 C 153.868 281.994 153.691 282.060 156.651 277.337 C 157.764 275.560 157.827 275.562 158.558 277.380 C 159.010 278.504 157.432 288.770 154.638 302.880 C 149.011 331.304 147.827 338.571 144.602 364.500 C 140.771 395.308 139.658 405.991 140.222 406.556 C 140.507 406.840 142.936 406.219 145.620 405.174 C 148.304 404.130 152.841 402.723 155.702 402.049 C 160.422 400.937 161.011 400.485 162.069 397.162 C 165.690 385.785 179.516 362.905 185.226 358.839 C 189.505 355.792 196.515 356.656 201.858 360.887 C 206.596 364.640 214.383 374.222 219.016 382.000 C 220.818 385.025 222.878 388.461 223.594 389.635 L 224.895 391.770 233.198 389.831 C 253.801 385.019 293.238 382.287 326.272 383.384 L 345.044 384.007 342.967 379.935 C 339.704 373.540 339.399 367.339 341.934 358.990 C 344.718 349.827 350.315 343.502 359.266 339.406 C 364.841 336.854 366.609 336.550 375.995 336.526 L 386.490 336.500 388.601 331.962 C 393.365 321.720 407.138 314.256 419.449 315.244 C 433.556 316.376 445.812 328.195 448.554 343.310 C 449.101 346.327 449.584 346.974 450.873 346.419 C 459.561 342.680 467.703 342.878 474.714 347.000 L 477.928 348.890 477.466 346.195 C 477.212 344.713 476.313 339.450 475.469 334.500 C 474.624 329.550 471.843 314.802 469.289 301.728 C 465.851 284.131 464.937 277.663 465.769 276.831 C 466.601 275.999 467.354 276.720 468.667 279.604 C 469.642 281.747 470.510 283.631 470.595 283.791 C 470.724 284.035 478.402 281.158 513.250 267.811 C 515.307 267.023 516.000 266.080 516.000 264.069 C 516.000 259.108 503.757 227.456 495.354 210.691 C 491.116 202.238 482.090 186.000 481.628 186.000 C 481.520 186.000 480.669 187.291 479.737 188.868 M 311.992 239.974 C 313.117 240.685 313.201 241.199 312.331 242.069 C 308.783 245.617 282.565 247.637 281.345 244.457 C 281.019 243.608 281.020 242.647 281.346 242.321 C 283.907 239.760 308.655 237.864 311.992 239.974 "/></g>
<g fill="#FCC878FC" stroke="#FCC878FC">
<path d="M 189.198 390.679 C 188.591 392.231 186.467 398.900 184.479 405.500 C 177.787 427.715 177.481 428.206 169.500 429.502 C 162.879 430.577 140.000 438.110 140.000 439.215 C 140.000 439.780 139.345 444.801 138.545 450.372 C 137.744 455.942 136.137 467.475 134.973 476.000 C 132.536 493.839 129.390 509.332 127.434 513.123 C 126.689 514.565 125.197 515.977 124.119 516.259 C 120.470 517.213 117.547 524.651 117.539 533.000 C 117.528 545.137 122.571 552.472 136.500 560.582 C 152.458 569.872 165.627 573.000 188.789 573.000 C 205.777 573.000 211.839 571.675 226.305 564.800 C 236.702 559.859 241.415 555.222 251.621 539.892 C 260.646 526.335 277.442 492.639 283.967 475.000 C 286.917 467.025 289.746 459.956 290.254 459.291 C 290.901 458.443 290.426 457.894 288.662 457.451 C 286.346 456.870 281.849 453.063 283.345 452.951 C 283.705 452.924 296.698 452.880 312.217 452.852 C 341.396 452.802 345.190 453.351 337.588 456.528 C 335.615 457.352 334.000 458.181 334.000 458.370 C 334.000 458.558 336.509 465.415 339.576 473.606 C 350.170 501.903 371.437 541.049 383.860 555.118 C 386.715 558.352 390.718 561.133 397.219 564.399 C 411.606 571.627 417.784 573.008 435.497 572.956 C 458.671 572.887 472.498 569.707 486.834 561.149 C 501.593 552.338 507.022 544.764 506.972 533.054 C 506.940 525.589 503.922 518.289 500.068 516.354 C 498.071 515.352 497.451 515.583 495.109 518.204 C 492.356 521.285 484.257 524.142 480.821 523.243 C 478.240 522.568 477.590 519.275 479.471 516.403 C 482.066 512.443 486.979 509.870 491.250 510.233 C 495.572 510.602 495.570 510.607 493.550 501.812 C 492.209 495.973 488.591 472.181 485.975 452.000 C 484.454 440.262 484.101 439.158 481.651 438.455 C 480.468 438.115 471.175 435.200 461.000 431.976 C 450.825 428.752 438.675 425.185 434.000 424.049 C 429.325 422.914 423.250 421.304 420.500 420.472 C 413.102 418.233 404.687 417.268 371.500 414.851 C 322.605 411.291 273.467 412.178 217.759 417.628 L 211.017 418.288 207.466 410.394 C 199.964 393.719 197.142 389.470 192.901 388.471 C 190.714 387.956 190.126 388.307 189.198 390.679 M 148.189 514.585 C 153.896 518.624 155.042 520.715 152.559 522.559 C 148.793 525.355 133.968 523.734 131.250 520.229 C 129.497 517.969 129.695 514.995 131.748 512.726 C 134.390 509.807 142.777 510.755 148.189 514.585 "/></g>
<g fill="#FCBCC4FC" stroke="#FCBCC4FC">
<path d="M 129.589 353.672 C 118.616 355.115 113.440 356.357 104.736 359.637 C 89.123 365.520 70.242 381.762 62.066 396.342 C 53.270 412.029 48.006 433.488 49.418 447.902 L 50.064 454.500 36.782 454.500 C 23.126 454.500 15.163 455.921 5.250 460.126 L 1.000 461.929 1.000 531.464 L 1.000 601.000 252.550 601.000 L 504.099 601.000 503.481 594.750 C 502.257 582.378 497.129 563.329 495.442 564.884 C 493.813 566.386 485.688 570.535 481.000 572.259 C 472.198 575.495 460.311 577.880 446.891 579.102 C 435.066 580.179 431.659 580.124 420.891 578.683 C 407.465 576.886 401.184 574.968 392.563 570.036 C 386.734 566.701 376.000 557.494 376.000 555.829 C 376.000 555.295 374.233 552.753 372.074 550.179 C 358.946 534.535 343.665 503.642 329.939 465.000 L 327.986 459.500 312.243 459.500 L 296.500 459.500 293.185 468.000 C 291.361 472.675 288.822 479.425 287.543 483.000 C 282.677 496.592 272.058 519.113 263.893 533.154 C 258.213 542.921 245.861 559.072 240.381 563.896 C 225.727 576.795 201.966 581.944 172.500 578.606 C 136.504 574.528 114.054 560.376 110.045 539.237 C 108.103 528.996 112.588 515.946 119.438 511.904 C 123.520 509.496 125.651 502.616 126.502 489.099 C 127.088 479.808 130.330 454.517 131.569 449.581 L 132.208 447.033 127.120 449.267 C 124.321 450.495 121.769 452.288 121.448 453.250 C 120.838 455.082 117.522 455.654 116.558 454.094 C 115.777 452.830 112.000 453.964 112.000 455.462 C 112.000 457.644 108.281 460.224 106.123 459.539 C 101.512 458.076 102.879 451.027 107.785 450.967 C 109.278 450.948 111.582 450.033 112.904 448.931 L 115.309 446.929 113.206 442.215 C 112.049 439.622 110.846 436.556 110.533 435.402 C 110.006 433.466 109.560 433.370 104.731 434.154 C 91.998 436.221 84.012 430.440 84.004 419.150 C 84.000 414.425 84.387 413.413 87.310 410.490 C 91.363 406.437 97.250 404.638 101.998 405.999 C 106.263 407.223 112.636 413.366 114.034 417.603 L 115.099 420.830 121.527 417.915 C 125.063 416.312 129.316 415.000 130.978 415.000 C 133.605 415.000 134.002 414.640 134.015 412.250 C 134.051 405.372 136.110 373.747 136.961 367.000 C 137.481 362.875 138.040 357.925 138.203 356.000 L 138.500 352.500 129.589 353.672 M 115.016 471.519 C 116.041 472.754 115.985 473.360 114.714 474.769 C 113.384 476.244 113.354 476.774 114.511 478.352 C 115.668 479.929 115.626 480.747 114.227 483.852 C 113.323 485.859 111.841 488.400 110.934 489.500 C 110.027 490.600 108.072 493.774 106.590 496.554 C 103.502 502.346 93.495 512.964 84.863 519.605 C 81.615 522.105 75.132 525.942 70.456 528.133 C 63.343 531.467 60.803 532.148 54.896 532.309 C 48.500 532.482 47.650 532.271 45.852 530.057 C 44.761 528.714 44.062 526.872 44.299 525.964 C 44.537 525.056 43.905 523.797 42.895 523.167 C 40.135 521.443 37.873 517.494 38.584 515.641 C 38.931 514.738 40.305 514.000 41.639 514.000 C 42.973 514.000 45.512 513.398 47.282 512.663 C 49.052 511.927 53.650 510.547 57.500 509.596 C 64.081 507.971 65.394 507.123 79.438 495.434 C 87.654 488.595 94.629 482.988 94.938 482.973 C 95.247 482.958 96.611 481.145 97.969 478.945 C 101.031 473.982 104.436 471.585 106.657 472.828 C 107.790 473.462 108.825 473.175 110.135 471.865 C 112.397 469.603 113.368 469.534 115.016 471.519 M 92.965 462.934 C 93.534 463.998 94.000 466.463 94.000 468.411 C 94.000 472.827 90.909 475.122 83.599 476.133 C 76.398 477.130 70.223 478.918 65.000 481.521 C 52.369 487.813 26.376 494.387 23.514 492.012 C 22.681 491.321 22.000 490.058 22.000 489.206 C 22.000 488.354 21.254 486.833 20.341 485.825 C 17.546 482.736 19.885 479.725 28.167 475.749 C 41.459 469.368 55.520 466.000 68.865 466.000 C 74.275 466.000 77.228 465.529 78.824 464.410 C 80.728 463.077 83.041 462.463 91.215 461.118 C 91.608 461.053 92.395 461.870 92.965 462.934 M 121.429 457.571 C 124.602 460.745 122.131 465.375 117.552 464.836 C 113.734 464.386 112.255 461.930 113.783 458.578 C 115.143 455.591 118.948 455.090 121.429 457.571 M 101.962 459.929 C 102.806 461.506 102.507 462.242 100.328 463.956 C 97.227 466.396 95.624 466.181 95.193 463.268 C 95.005 461.997 95.769 460.574 97.166 459.597 C 100.096 457.544 100.708 457.586 101.962 459.929 "/></g>
<g fill="#000000FC" stroke="#000000FC">
<path d="M 302.500 102.050 C 278.331 105.671 267.137 109.669 257.758 118.028 C 247.479 127.190 242.000 138.626 242.000 150.920 C 242.000 162.293 245.807 169.812 254.872 176.343 C 262.312 181.704 267.345 183.237 277.116 183.120 C 288.140 182.989 296.851 180.336 305.662 174.427 L 312.393 169.914 315.200 171.989 C 326.544 180.377 334.348 183.030 347.862 183.094 C 355.488 183.130 357.655 182.749 362.292 180.555 C 369.248 177.264 376.509 170.882 379.120 165.765 C 383.766 156.657 383.264 143.428 377.866 132.734 C 373.655 124.394 363.441 114.370 355.000 110.296 C 343.185 104.593 315.034 100.172 302.500 102.050 M 322.789 107.063 C 344.897 109.484 353.782 112.705 364.365 122.138 C 368.379 125.716 371.006 129.256 373.721 134.750 C 377.198 141.785 377.496 143.065 377.498 150.944 C 377.500 158.469 377.170 160.061 374.763 164.155 C 367.798 176.003 354.196 181.027 338.241 177.643 C 329.475 175.784 319.977 171.669 316.905 168.399 C 313.881 165.180 311.868 165.370 305.959 169.435 C 296.560 175.900 282.422 179.728 272.211 178.572 C 265.167 177.775 259.160 174.818 253.755 169.490 C 240.473 156.396 245.336 132.319 264.042 118.548 C 271.620 112.969 278.349 110.448 290.719 108.553 C 308.539 105.822 310.584 105.727 322.789 107.063 "/></g>
<g fill="#FCBCC4FC" stroke="#FCBCC4FC">
<path d="M 507.500 22.871 C 501.893 24.338 497.056 27.196 493.479 31.155 C 489.177 35.917 488.000 38.763 488.000 44.407 C 488.000 48.603 487.892 48.739 482.283 51.607 C 474.255 55.713 470.660 61.609 470.161 71.487 C 469.850 77.645 470.163 79.388 472.359 83.722 C 473.768 86.502 476.831 90.411 479.166 92.410 C 483.044 95.729 490.911 99.000 495.018 99.000 C 496.181 99.000 497.150 100.718 498.282 104.791 C 501.366 115.883 510.092 121.947 523.000 121.968 C 535.429 121.988 544.216 116.340 546.524 106.844 C 547.118 104.399 547.420 104.260 550.328 105.094 C 565.800 109.531 583.252 97.404 583.361 82.139 C 583.407 75.683 582.013 72.556 576.092 65.837 C 572.443 61.695 572.096 60.878 572.992 58.522 C 574.465 54.646 574.223 46.470 572.514 42.380 C 570.008 36.382 565.195 31.242 559.453 28.433 C 552.249 24.909 544.000 25.238 538.727 29.259 L 535.259 31.904 532.879 29.355 C 527.583 23.679 515.860 20.685 507.500 22.871 "/></g>
<g fill="#FCBCC4FC" stroke="#FCBCC4FC">
<path d="M 25.000 69.599 C 19.596 71.551 11.777 77.100 9.066 80.908 C 7.477 83.138 6.514 83.582 4.050 83.221 L 1.000 82.773 1.000 128.387 L 1.000 174.000 5.169 174.000 C 7.963 174.000 11.110 173.000 14.708 170.969 L 20.078 167.939 22.585 170.918 C 26.872 176.013 35.067 179.334 43.351 179.332 C 52.913 179.330 59.760 176.921 65.903 171.397 C 71.885 166.019 73.431 161.955 72.745 153.409 C 72.241 147.129 72.249 147.104 75.106 146.477 C 76.684 146.130 79.933 143.943 82.328 141.616 C 92.731 131.504 92.439 113.406 81.689 102.165 C 77.716 98.010 74.500 96.301 68.050 94.917 C 63.417 93.924 63.000 93.599 63.000 90.982 C 63.000 86.600 61.443 83.436 56.818 78.418 C 48.538 69.435 35.476 65.815 25.000 69.599 "/></g>
<g fill="#FCFCFCFC" stroke="#FCFCFCFC">
<path d="M 301.000 107.660 C 281.525 110.681 279.007 111.285 272.360 114.523 C 254.431 123.256 243.633 142.881 247.959 158.868 C 249.352 164.017 256.579 172.234 262.267 175.136 C 267.155 177.630 276.746 178.474 284.876 177.127 C 291.702 175.996 302.421 171.442 307.658 167.448 C 311.594 164.445 314.103 164.350 316.595 167.108 C 318.872 169.628 325.452 173.029 333.000 175.588 C 340.686 178.193 356.108 178.194 361.000 175.589 C 367.596 172.078 371.896 167.912 374.574 162.438 C 376.961 157.559 377.205 156.108 376.804 149.179 C 376.227 139.210 372.641 131.633 364.811 123.835 C 356.264 115.323 347.171 111.215 331.817 108.927 C 320.523 107.244 307.211 106.697 301.000 107.660 M 320.500 113.878 C 324.763 114.790 324.516 117.974 320.000 120.313 C 313.552 123.652 299.346 120.636 300.217 116.113 C 300.386 115.234 301.869 114.228 303.512 113.876 C 307.360 113.053 316.645 113.054 320.500 113.878 "/></g>
<g fill="#DC4030FC" stroke="#DC4030FC">
<path d="M 406.500 323.443 C 403.750 324.777 400.529 326.685 399.343 327.684 C 396.153 330.370 392.002 336.973 391.985 339.390 C 391.951 343.984 390.828 344.366 382.871 342.491 C 375.955 340.861 375.099 340.857 369.000 342.416 C 358.046 345.216 351.825 350.666 348.603 360.285 C 345.921 368.290 346.635 372.900 351.692 380.250 C 354.245 383.961 354.342 384.000 361.056 384.000 C 380.523 384.000 415.337 387.749 434.717 391.931 C 459.920 397.371 468.238 399.398 475.834 401.950 L 484.167 404.750 483.534 398.625 C 480.408 368.402 479.920 365.779 476.404 360.283 C 470.762 351.463 463.946 348.711 454.525 351.450 C 449.747 352.839 449.081 353.367 448.465 356.255 C 445.399 370.638 434.433 378.900 422.424 375.877 C 413.410 373.607 408.774 365.191 412.603 358.047 C 413.806 355.802 415.237 354.500 416.502 354.500 C 418.261 354.500 418.460 355.057 418.167 359.161 C 417.985 361.725 418.319 364.727 418.910 365.831 C 420.533 368.864 426.030 370.338 430.862 369.037 C 438.242 367.050 442.469 359.341 442.398 348.000 C 442.273 328.009 423.530 315.187 406.500 323.443 "/></g>
<g fill="#FCB820FC" stroke="#FCB820FC">
<path d="M 185.163 364.750 C 181.325 368.421 173.700 382.449 167.598 397.066 L 164.857 403.631 156.178 406.736 C 151.405 408.443 145.588 410.397 143.250 411.078 L 139.000 412.317 139.000 419.658 C 139.000 423.696 139.403 427.000 139.895 427.000 C 140.387 427.000 143.649 426.129 147.145 425.065 C 150.640 424.000 156.425 422.602 160.000 421.958 C 163.575 421.313 167.142 420.469 167.926 420.081 C 168.710 419.693 170.174 416.929 171.180 413.938 C 172.185 410.947 175.537 403.397 178.627 397.161 C 186.568 381.135 191.307 378.551 199.272 385.901 C 203.142 389.472 205.937 394.166 211.983 407.250 C 214.118 411.869 214.301 412.000 218.596 412.000 C 221.025 412.000 227.398 411.347 232.757 410.548 C 271.217 404.819 347.935 404.511 387.500 409.928 C 391.350 410.455 397.650 411.161 401.500 411.496 C 414.785 412.655 431.535 415.126 442.500 417.546 C 448.550 418.881 457.325 420.637 462.000 421.448 C 466.675 422.260 473.371 423.841 476.880 424.962 C 480.389 426.083 483.652 427.000 484.130 427.000 C 484.609 427.000 485.000 423.165 485.000 418.479 C 485.000 410.579 484.836 409.890 482.750 409.042 C 481.513 408.539 471.950 406.080 461.500 403.578 C 439.681 398.354 400.407 392.483 376.500 390.872 C 352.614 389.262 280.337 389.224 264.000 390.812 C 249.479 392.224 225.374 395.651 224.004 396.498 C 223.543 396.783 222.222 395.775 221.069 394.258 C 219.916 392.741 216.954 388.919 214.487 385.764 C 212.019 382.609 210.000 379.434 210.000 378.709 C 210.000 376.617 199.302 364.208 196.048 362.525 C 191.578 360.213 189.453 360.648 185.163 364.750 "/></g>
<g fill="#FCBCC4FC" stroke="#FCBCC4FC">
<path d="M 589.842 437.375 C 569.128 445.895 554.039 463.254 547.902 485.626 C 546.088 492.239 545.845 495.303 546.216 506.925 C 546.581 518.382 547.076 521.748 549.387 528.500 C 553.974 541.898 562.815 553.439 573.808 560.379 C 578.451 563.310 590.267 567.439 596.750 568.396 L 601.000 569.024 601.000 502.012 L 601.000 435.000 598.250 435.024 C 596.738 435.037 592.954 436.095 589.842 437.375 "/></g>
<g fill="#ACD860FC" stroke="#ACD860FC">
<path d="M 593.405 192.817 C 585.707 197.792 577.292 207.177 573.255 215.289 C 559.741 242.442 568.870 275.292 593.331 287.530 L 600.500 291.116 600.759 240.058 C 600.902 211.976 600.634 189.000 600.164 189.000 C 599.694 189.000 596.653 190.718 593.405 192.817 "/></g>
<g fill="#ACD860FC" stroke="#ACD860FC">
<path d="M 173.339 5.458 C 174.765 15.860 181.875 25.211 191.852 29.805 C 196.288 31.847 199.504 32.495 206.839 32.826 C 215.196 33.202 216.902 32.962 223.071 30.542 C 227.201 28.921 231.940 26.061 234.891 23.408 C 239.301 19.444 240.095 19.085 242.473 19.990 C 253.444 24.161 272.312 16.149 278.062 4.878 L 280.041 1.000 226.384 1.000 L 172.728 1.000 173.339 5.458 "/></g>
<g fill="#ACD860FC" stroke="#ACD860FC">
<path d="M 1.241 351.570 L 1.500 406.263 6.000 402.847 C 12.090 398.224 20.405 386.954 23.583 379.016 C 31.219 359.944 30.706 338.834 22.166 320.617 C 18.187 312.129 9.894 302.066 4.094 298.688 L 0.983 296.877 1.241 351.570 "/></g>
<g fill="#984400FC" stroke="#984400FC">
<path d="M 183.745 360.250 C 177.240 366.472 165.445 386.553 162.075 397.142 C 161.049 400.365 160.375 400.914 156.208 401.918 C 147.114 404.109 140.205 407.107 139.688 409.087 C 138.967 411.843 140.890 411.588 153.401 407.266 C 163.605 403.740 164.391 403.276 165.708 400.000 C 166.482 398.075 170.458 389.696 174.544 381.379 C 182.418 365.351 186.052 361.000 191.565 361.000 C 197.640 361.000 204.743 368.489 217.024 387.843 C 222.135 395.898 222.425 396.164 225.409 395.550 C 234.724 393.632 258.278 390.908 274.255 389.901 C 298.138 388.396 371.097 389.453 390.000 391.579 C 419.822 394.932 445.678 399.193 464.722 403.893 C 483.777 408.596 484.480 408.696 483.955 406.637 C 483.085 403.221 472.816 400.154 434.717 391.931 C 409.875 386.570 384.921 384.460 335.000 383.500 C 288.053 382.598 255.485 384.626 233.145 389.843 L 224.789 391.795 223.145 388.814 C 215.603 375.148 203.136 360.143 197.562 358.024 C 192.179 355.977 187.408 356.746 183.745 360.250 "/></g>
<g fill="#5C0000FC" stroke="#5C0000FC">
<path d="M 110.304 472.500 C 109.126 473.325 107.472 473.735 106.628 473.411 C 104.681 472.664 101.443 474.915 98.663 478.948 C 97.473 480.674 89.525 487.906 81.000 495.019 C 68.142 505.746 64.562 508.217 60.000 509.510 C 56.975 510.367 52.250 511.776 49.500 512.641 C 46.750 513.506 43.385 514.418 42.023 514.668 C 40.660 514.917 39.349 515.317 39.110 515.557 C 38.328 516.339 41.100 521.382 43.073 522.764 C 44.133 523.506 45.000 525.203 45.000 526.534 C 45.000 530.666 48.903 532.350 56.575 531.529 C 68.890 530.210 82.315 522.407 95.656 508.811 C 100.142 504.240 105.012 498.166 106.478 495.313 C 107.945 492.460 109.717 489.650 110.418 489.068 C 111.118 488.487 112.504 486.208 113.498 484.003 C 115.172 480.291 115.185 479.862 113.673 478.192 C 112.178 476.539 112.175 476.254 113.639 474.790 C 114.518 473.911 114.932 472.699 114.559 472.096 C 113.657 470.637 112.855 470.713 110.304 472.500 M 101.564 487.655 L 104.219 490.310 101.427 496.153 C 98.318 502.658 89.151 511.136 76.500 519.205 C 65.121 526.463 60.866 528.151 54.821 527.805 C 49.887 527.522 49.478 527.306 49.191 524.826 C 49.019 523.337 47.801 521.444 46.441 520.553 C 43.587 518.683 43.257 516.993 45.750 517.016 C 46.713 517.025 51.700 516.027 56.834 514.799 L 66.169 512.566 80.334 500.696 C 88.125 494.168 95.400 488.003 96.500 486.996 C 97.600 485.989 98.592 485.128 98.705 485.083 C 98.817 485.037 100.104 486.195 101.564 487.655 M 108.642 479.134 C 110.779 481.141 110.824 481.440 109.398 484.197 C 108.565 485.809 107.572 486.972 107.191 486.782 C 106.811 486.591 105.150 485.797 103.500 485.015 C 101.850 484.234 100.350 483.499 100.167 483.382 C 99.734 483.103 105.170 477.000 105.851 477.000 C 106.137 477.000 107.393 477.960 108.642 479.134 "/></g>
<g fill="#FCB820FC" stroke="#FCB820FC">
<path d="M 410.500 316.417 C 399.577 319.305 392.435 324.577 388.975 332.304 L 387.199 336.271 377.350 336.460 C 364.037 336.716 357.517 339.202 349.914 346.919 C 343.460 353.470 341.000 359.332 341.000 368.158 C 341.000 374.697 343.338 381.575 346.055 383.029 C 349.862 385.067 355.349 383.570 351.896 381.436 C 349.805 380.143 347.044 372.491 347.022 367.928 C 346.993 361.933 349.334 355.264 353.048 350.758 C 359.416 343.033 373.044 339.352 384.312 342.314 C 388.623 343.448 390.217 343.540 390.486 342.671 C 390.685 342.027 391.387 339.754 392.045 337.619 C 394.523 329.582 404.368 321.967 414.184 320.495 C 425.306 318.827 436.634 326.112 441.031 337.761 C 445.456 349.483 441.831 364.480 433.633 368.370 C 424.131 372.879 415.813 367.842 417.542 358.626 C 418.087 355.721 417.913 355.000 416.668 355.000 C 414.380 355.000 412.000 358.963 412.000 362.772 C 412.000 367.663 414.521 371.715 418.981 373.990 C 430.592 379.914 444.216 372.193 447.444 357.858 C 448.569 352.866 448.899 352.447 452.573 351.338 C 463.086 348.167 471.443 351.146 476.872 360.000 C 478.727 363.025 480.005 364.783 479.714 363.907 C 479.422 363.030 478.861 359.655 478.468 356.407 C 477.630 349.480 476.847 348.296 471.500 345.863 C 466.138 343.424 458.438 343.483 453.500 346.000 C 448.377 348.612 448.000 348.546 448.000 345.038 C 448.000 339.690 444.044 331.210 438.950 325.635 C 431.199 317.155 420.644 313.735 410.500 316.417 "/></g>
<g fill="#FCB820FC" stroke="#FCB820FC">
<path d="M 434.095 216.064 C 431.672 217.151 423.122 219.201 415.095 220.618 C 401.936 222.941 397.794 223.206 373.000 223.311 C 354.940 223.388 341.209 222.938 333.000 222.001 C 313.816 219.811 292.488 220.158 281.663 222.836 C 270.846 225.512 271.884 224.953 255.746 236.789 C 240.013 248.328 235.000 252.278 235.000 253.135 C 235.000 253.484 236.095 254.488 237.434 255.364 C 239.785 256.906 240.050 256.810 245.325 252.513 C 260.431 240.208 277.851 231.135 291.917 228.245 C 299.743 226.638 314.806 227.082 353.500 230.062 C 387.003 232.642 422.827 227.380 436.099 217.929 C 440.423 214.851 439.243 213.753 434.095 216.064 "/></g>
<g fill="#FCC878FC" stroke="#FCC878FC">
<path d="M 490.136 375.665 C 488.031 376.114 487.835 376.572 488.349 379.835 C 488.667 381.851 489.235 390.117 489.613 398.204 L 490.299 412.908 497.097 414.454 C 506.253 416.536 512.927 416.400 519.239 414.001 C 522.133 412.901 525.349 412.001 526.387 412.001 C 528.093 412.000 528.225 411.387 527.761 405.611 C 526.450 389.284 514.360 376.737 498.861 375.620 C 495.362 375.367 491.436 375.388 490.136 375.665 "/></g>
<g fill="#FCC878FC" stroke="#FCC878FC">
<path d="M 112.611 172.003 C 104.849 175.034 101.724 179.117 99.602 189.000 C 99.264 190.571 97.670 192.243 95.308 193.500 C 93.216 194.614 90.519 197.273 89.224 199.500 C 87.199 202.980 86.970 204.384 87.460 210.301 C 87.983 216.616 87.827 217.361 85.273 220.708 C 82.990 223.702 82.465 225.518 82.182 231.407 C 81.994 235.308 82.271 239.625 82.797 241.000 L 83.753 243.500 87.236 239.827 C 91.946 234.862 101.115 218.994 106.102 207.179 C 110.150 197.590 119.098 180.223 122.909 174.562 C 123.996 172.947 124.660 171.259 124.384 170.812 C 123.524 169.421 117.719 170.008 112.611 172.003 "/></g>
<g fill="#FCC878FC" stroke="#FCC878FC">
<path d="M 499.613 170.816 C 499.336 171.265 500.473 173.628 502.140 176.066 C 506.398 182.294 518.074 206.176 521.470 215.605 C 523.395 220.949 525.641 224.954 528.423 228.000 C 530.683 230.475 533.650 233.926 535.016 235.668 C 538.698 240.365 541.249 240.389 542.415 235.739 C 543.537 231.263 541.147 222.348 538.080 219.572 C 536.412 218.063 536.238 216.888 536.726 210.436 C 537.244 203.593 537.083 202.724 534.607 198.982 C 533.133 196.755 530.428 194.218 528.595 193.344 C 525.741 191.983 525.089 190.975 524.046 186.315 C 522.455 179.205 518.449 174.686 511.402 172.049 C 505.751 169.935 500.498 169.386 499.613 170.816 "/></g>
<g fill="#5C0000FC" stroke="#5C0000FC">
<path d="M 85.500 462.651 C 81.720 463.522 78.000 465.244 78.000 466.121 C 78.000 466.605 73.333 467.000 67.628 467.000 C 54.522 467.000 40.934 470.249 29.000 476.236 C 22.550 479.471 20.423 481.044 20.180 482.754 C 19.988 484.107 20.488 485.250 21.430 485.611 C 22.293 485.943 23.000 487.305 23.000 488.638 C 23.000 492.142 25.107 492.488 34.835 490.579 C 45.337 488.518 53.062 486.049 63.000 481.574 C 67.125 479.717 73.200 477.675 76.500 477.035 C 91.839 474.063 94.417 472.301 93.079 465.705 C 92.408 462.396 90.297 461.545 85.500 462.651 M 76.818 471.707 C 76.471 473.506 74.460 474.324 49.000 483.023 C 33.360 488.367 26.000 489.383 26.000 486.200 C 26.000 485.210 25.539 483.939 24.976 483.376 C 23.249 481.649 26.944 479.366 35.000 477.183 C 43.341 474.922 62.324 471.245 68.500 470.693 C 77.143 469.922 77.161 469.924 76.818 471.707 M 89.930 469.625 C 89.968 470.244 88.763 471.000 87.250 471.305 C 85.738 471.610 83.770 472.143 82.878 472.488 C 81.688 472.949 81.121 472.413 80.751 470.479 C 80.462 468.964 80.726 467.721 81.374 467.558 C 81.993 467.401 83.850 466.854 85.500 466.342 C 88.503 465.410 89.723 466.314 89.930 469.625 "/></g>
<g fill="#FCB820FC" stroke="#FCB820FC">
<path d="M 131.131 173.589 C 124.142 181.529 111.139 209.169 103.417 232.500 C 99.776 243.500 96.573 254.975 96.299 258.000 C 95.838 263.089 96.019 263.707 98.727 266.271 L 101.653 269.041 103.545 266.950 C 104.745 265.624 105.340 263.695 105.171 261.679 C 104.612 255.020 112.927 231.158 122.556 211.788 C 127.715 201.408 137.480 185.157 139.333 183.866 C 139.846 183.508 139.189 180.067 137.827 175.980 L 135.409 168.728 131.131 173.589 "/></g>
<g fill="#FCB820FC" stroke="#FCB820FC">
<path d="M 487.000 171.616 C 487.000 172.504 486.227 175.408 485.282 178.069 C 483.598 182.810 483.606 182.953 485.689 185.203 C 488.336 188.064 497.634 203.336 502.001 211.995 C 506.943 221.795 513.479 238.563 516.873 250.151 C 522.721 270.118 522.424 269.608 525.961 265.811 C 528.475 263.113 528.613 257.950 526.381 250.154 C 524.150 242.369 518.768 226.166 515.104 216.210 C 509.141 200.006 495.734 174.768 491.221 171.250 C 488.996 169.515 487.000 169.688 487.000 171.616 "/></g>
<g fill="#984400FC" stroke="#984400FC">
<path d="M 447.015 213.809 C 447.007 215.116 446.559 215.845 445.984 215.490 C 445.425 215.144 445.176 214.524 445.431 214.112 C 445.686 213.699 444.556 213.558 442.919 213.799 C 441.283 214.039 439.531 215.009 439.025 215.954 C 437.172 219.416 423.969 224.916 411.000 227.628 C 399.593 230.014 396.313 230.254 373.500 230.371 C 357.160 230.455 340.611 229.868 325.727 228.677 C 300.531 226.659 294.419 227.046 281.713 231.465 C 273.086 234.465 259.888 241.947 251.205 248.761 C 247.517 251.654 243.217 254.872 241.649 255.911 C 238.835 257.777 238.827 257.810 241.019 258.506 C 242.565 258.997 244.040 258.569 245.870 257.100 C 252.546 251.742 273.939 238.332 278.463 236.670 C 290.972 232.073 305.365 230.737 322.908 232.543 C 361.680 236.535 380.454 236.772 404.529 233.573 C 420.156 231.497 424.687 230.333 431.500 226.645 C 434.800 224.859 439.075 223.304 441.000 223.189 C 446.510 222.861 450.562 216.964 448.000 213.000 C 447.220 211.793 447.028 211.951 447.015 213.809 "/></g>
<g fill="#5C0000FC" stroke="#5C0000FC">
<path d="M 93.619 407.034 C 84.807 409.673 81.816 420.878 87.777 428.923 C 91.028 433.310 99.504 435.150 106.809 433.055 C 109.547 432.270 110.203 432.397 110.684 433.805 C 111.002 434.737 112.399 438.108 113.788 441.296 L 116.314 447.092 114.157 448.603 C 111.085 450.754 111.301 453.367 114.500 452.755 C 115.875 452.492 117.000 452.665 117.000 453.139 C 117.000 454.480 119.807 454.151 120.700 452.705 C 121.140 451.993 124.200 450.086 127.500 448.466 C 134.505 445.027 135.003 444.489 134.869 440.500 C 134.813 438.850 134.572 438.236 134.333 439.137 C 133.939 440.616 123.677 446.000 121.251 446.000 C 120.701 446.000 118.664 442.063 116.725 437.250 L 113.198 428.500 115.349 426.770 C 119.415 423.499 131.283 419.081 133.219 420.117 C 134.746 420.934 135.000 420.635 135.000 418.023 C 135.000 415.007 134.957 414.983 130.750 415.601 C 128.413 415.945 123.841 417.526 120.590 419.113 C 117.340 420.701 114.584 422.000 114.465 422.000 C 114.347 422.000 113.987 420.687 113.666 419.082 C 112.972 415.610 107.825 409.478 103.901 407.449 C 100.804 405.847 97.966 405.733 93.619 407.034 M 102.583 410.606 C 106.402 412.419 109.448 416.812 110.482 422.000 L 111.179 425.500 108.131 421.888 C 106.454 419.902 103.703 417.705 102.016 417.007 C 99.349 415.902 98.691 415.969 96.974 417.523 C 93.128 421.004 95.488 427.214 101.295 428.893 L 104.500 429.820 100.154 429.910 C 92.368 430.071 88.000 425.830 88.000 418.108 C 88.000 414.078 89.680 411.848 94.021 410.116 C 97.527 408.717 98.748 408.787 102.583 410.606 M 104.313 422.805 C 107.782 426.426 107.700 427.061 103.903 425.972 C 100.145 424.894 98.000 423.225 98.000 421.378 C 98.000 419.058 101.476 419.843 104.313 422.805 "/></g>
<g fill="#5C0000FC" stroke="#5C0000FC">
<path d="M 213.645 237.065 C 212.201 238.201 210.539 238.833 209.953 238.471 C 207.920 237.214 204.029 239.043 202.518 241.965 C 200.435 245.994 200.616 249.342 203.035 251.532 C 204.155 252.545 204.864 253.913 204.611 254.572 C 203.848 256.561 206.952 260.000 209.510 260.000 C 212.126 260.000 217.000 258.068 217.000 257.031 C 217.000 256.674 217.595 255.569 218.322 254.575 C 219.576 252.860 219.971 252.930 226.072 255.945 C 229.607 257.693 234.626 260.558 237.224 262.312 C 241.324 265.079 241.954 265.963 241.990 269.000 C 242.038 273.145 242.487 273.889 246.720 276.845 C 249.521 278.801 250.435 278.960 253.751 278.067 C 259.804 276.437 261.455 274.747 261.455 270.177 C 261.455 263.287 256.059 259.785 248.611 261.842 C 245.783 262.622 244.835 262.503 243.795 261.234 C 241.669 258.642 230.938 252.062 226.827 250.830 C 223.079 249.707 221.626 246.967 224.000 245.500 C 224.550 245.160 225.000 243.403 225.000 241.596 C 225.000 235.436 218.840 232.978 213.645 237.065 M 211.129 244.750 C 211.726 246.263 212.638 248.316 213.155 249.313 C 214.512 251.929 213.228 255.000 210.778 255.000 C 208.819 255.000 208.792 254.887 210.345 253.171 C 212.643 250.632 212.411 249.003 209.750 248.985 C 205.761 248.958 204.451 247.499 205.785 244.572 C 207.315 241.214 209.765 241.295 211.129 244.750 M 221.000 241.383 C 221.000 244.641 216.417 245.704 215.614 242.632 C 215.036 240.422 216.426 239.040 219.250 239.015 C 220.431 239.005 221.000 239.774 221.000 241.383 M 249.900 271.250 C 249.955 272.213 249.580 273.000 249.067 273.000 C 247.643 273.000 246.774 269.275 247.609 266.750 L 248.353 264.500 249.077 267.000 C 249.475 268.375 249.845 270.288 249.900 271.250 M 255.639 267.502 C 256.186 268.928 255.247 274.645 254.593 273.868 C 254.422 273.666 254.023 271.813 253.704 269.750 C 253.134 266.056 254.483 264.489 255.639 267.502 "/></g>
<g fill="#DC4030FC" stroke="#DC4030FC">
<path d="M 93.469 490.377 C 90.744 492.645 83.700 498.588 77.816 503.584 C 67.145 512.645 67.093 512.674 56.809 515.341 C 51.139 516.812 45.837 518.012 45.027 518.008 C 44.130 518.003 44.520 518.661 46.027 519.692 C 49.314 521.941 50.061 523.158 49.420 525.217 C 48.738 527.409 52.574 528.484 57.991 527.617 C 64.773 526.533 78.588 518.264 90.767 507.999 C 96.028 503.565 98.842 500.274 100.959 496.082 L 103.883 490.289 101.153 488.271 L 98.424 486.254 93.469 490.377 "/></g>
<g fill="#984400FC" stroke="#984400FC">
<path d="M 178.000 214.831 C 178.000 216.827 178.737 218.057 180.500 219.000 C 182.785 220.223 183.300 221.143 183.300 224.000 C 183.300 224.550 183.233 224.582 183.150 224.071 C 182.962 222.910 180.101 220.000 179.147 220.000 C 178.756 220.000 178.349 221.057 178.242 222.348 C 177.866 226.884 185.755 231.123 189.856 228.589 C 191.442 227.609 191.294 225.000 189.653 225.000 C 188.912 225.000 187.225 224.036 185.903 222.859 L 183.500 220.718 187.000 221.419 C 188.925 221.805 196.122 222.759 202.992 223.539 C 213.411 224.723 216.565 225.501 221.992 228.229 C 227.949 231.223 228.816 232.082 232.234 238.372 C 234.287 242.151 235.721 245.642 235.420 246.129 C 235.119 246.616 233.552 247.698 231.937 248.533 C 228.371 250.376 228.278 251.158 231.448 252.628 C 233.548 253.601 234.197 253.416 236.190 251.273 C 237.461 249.908 241.759 246.507 245.743 243.716 C 252.568 238.935 252.892 238.539 251.358 236.843 C 249.806 235.128 249.496 235.231 244.660 239.081 L 239.590 243.118 236.874 237.747 C 233.662 231.395 227.596 225.613 221.324 222.924 C 218.652 221.779 211.234 220.359 203.154 219.446 C 195.644 218.597 188.077 217.453 186.338 216.903 C 182.997 215.846 181.298 213.460 183.306 212.644 C 183.963 212.376 183.038 212.122 181.250 212.079 C 178.330 212.008 178.000 212.288 178.000 214.831 "/></g>
<g fill="#984400FC" stroke="#984400FC">
<path d="M 107.384 267.750 C 107.632 269.263 107.929 270.613 108.043 270.750 C 108.157 270.888 108.313 271.338 108.390 271.750 C 108.761 273.731 110.222 274.852 111.696 274.286 C 112.875 273.834 113.101 274.028 112.510 274.985 C 111.978 275.844 112.078 276.070 112.795 275.627 C 113.403 275.251 114.485 275.969 115.200 277.222 C 116.097 278.793 116.505 279.010 116.516 277.922 C 116.525 277.054 117.088 276.529 117.766 276.755 C 118.445 276.982 119.000 277.804 119.000 278.583 C 119.000 280.072 121.430 280.533 122.517 279.250 C 122.867 278.838 122.897 278.950 122.585 279.500 C 121.682 281.087 121.908 282.175 123.000 281.500 C 123.550 281.160 124.000 281.347 124.000 281.915 C 124.000 282.484 125.350 283.647 127.000 284.500 C 128.708 285.383 130.000 285.610 130.000 285.026 C 130.000 284.462 130.788 284.007 131.750 284.015 C 133.134 284.027 133.212 284.213 132.122 284.904 C 131.321 285.411 131.071 286.306 131.525 287.040 C 132.123 288.008 132.597 287.903 133.557 286.592 C 134.353 285.502 135.046 285.266 135.463 285.940 C 135.823 286.523 135.641 287.000 135.059 287.000 C 134.477 287.000 134.000 287.477 134.000 288.059 C 134.000 288.641 134.450 288.840 135.000 288.500 C 135.550 288.160 136.000 288.370 136.000 288.966 C 136.000 290.535 141.175 292.265 143.016 291.311 C 144.944 290.312 145.685 291.950 143.835 293.123 C 142.876 293.731 143.134 293.974 144.750 293.985 C 145.988 293.993 147.000 294.520 147.000 295.155 C 147.000 295.810 147.866 295.526 149.000 294.500 C 150.100 293.505 151.000 291.950 151.000 291.045 C 151.000 290.140 151.420 288.973 151.933 288.450 C 153.254 287.106 151.800 281.580 150.000 281.101 C 149.175 280.881 147.150 280.522 145.500 280.303 L 142.500 279.904 145.000 281.417 C 146.375 282.249 146.917 282.945 146.205 282.965 C 145.492 282.984 143.805 281.895 142.455 280.545 C 141.105 279.195 140.000 278.385 140.000 278.745 C 140.000 279.105 139.460 278.860 138.800 278.200 C 137.223 276.623 136.221 276.682 135.823 278.377 C 135.570 279.455 134.958 279.521 133.000 278.681 C 130.670 277.682 130.653 277.626 132.750 277.867 C 133.988 278.009 135.000 277.647 135.000 277.063 C 135.000 276.478 134.663 276.053 134.250 276.118 C 133.838 276.184 133.163 276.127 132.750 275.993 C 131.294 275.521 129.984 275.249 128.571 275.125 C 127.786 275.056 126.468 274.325 125.643 273.500 C 124.310 272.167 123.954 272.189 122.439 273.703 C 120.835 275.308 120.779 275.272 121.475 273.078 C 121.982 271.481 121.867 270.964 121.107 271.434 C 120.498 271.810 120.000 271.672 120.000 271.126 C 120.000 270.240 117.204 268.886 114.500 268.462 C 113.950 268.375 113.725 268.208 114.000 268.089 C 114.275 267.970 113.477 267.463 112.228 266.961 C 110.219 266.154 110.070 266.262 110.942 267.892 C 111.930 269.737 111.455 271.000 109.774 271.000 C 109.284 271.000 109.163 270.546 109.506 269.991 C 110.322 268.670 109.140 265.000 107.898 265.000 C 107.367 265.000 107.135 266.238 107.384 267.750 "/></g>
<g fill="#984400FC" stroke="#984400FC">
<path d="M 513.000 268.001 C 511.667 268.862 511.667 268.973 513.000 269.000 C 514.333 269.027 514.333 269.138 513.000 270.000 C 512.175 270.533 511.860 270.976 512.300 270.985 C 512.740 270.993 512.641 271.788 512.080 272.750 C 511.260 274.158 511.032 274.207 510.915 273.000 C 510.672 270.503 510.324 269.384 510.137 270.500 C 510.045 271.050 509.589 270.900 509.124 270.166 C 508.443 269.092 508.160 269.141 507.671 270.416 C 507.266 271.471 507.637 272.026 508.781 272.079 C 509.730 272.123 509.965 272.375 509.305 272.644 C 508.648 272.911 507.138 272.609 505.948 271.972 C 504.384 271.135 503.483 271.117 502.693 271.907 C 502.092 272.508 500.790 273.000 499.800 273.000 C 498.810 273.000 498.000 273.525 498.000 274.167 C 498.000 274.808 497.759 275.092 497.464 274.797 C 497.169 274.502 495.256 274.857 493.214 275.586 C 490.715 276.479 490.196 276.927 491.628 276.956 C 492.798 276.980 494.373 277.788 495.128 278.750 C 496.343 280.300 496.317 280.358 494.901 279.253 C 493.124 277.867 484.605 278.462 482.025 280.152 C 480.744 280.991 480.780 281.064 482.250 280.607 C 483.213 280.308 484.000 280.533 484.000 281.108 C 484.000 281.683 482.531 282.027 480.736 281.872 C 476.350 281.494 474.854 282.570 475.605 285.561 C 476.063 287.389 475.814 288.000 474.608 288.000 C 473.724 288.000 473.000 287.550 473.000 287.000 C 473.000 286.450 473.505 286.000 474.122 286.000 C 474.902 286.000 474.867 285.545 474.009 284.511 C 473.329 283.692 472.452 283.221 472.059 283.464 C 471.118 284.045 473.210 293.000 474.286 293.000 C 474.744 293.000 474.860 293.418 474.544 293.929 C 473.323 295.905 480.370 293.935 484.826 291.055 C 487.397 289.393 491.188 287.302 493.250 286.408 C 495.313 285.514 497.000 284.382 497.000 283.891 C 497.000 283.401 497.338 283.053 497.750 283.118 C 498.163 283.184 498.275 283.175 498.000 283.099 C 497.725 283.024 500.186 281.733 503.470 280.231 C 506.753 278.729 508.553 277.499 507.470 277.499 C 506.386 277.498 505.545 276.935 505.600 276.249 C 505.655 275.562 505.768 275.411 505.850 275.914 C 506.000 276.829 507.815 276.412 513.600 274.131 C 516.020 273.177 516.679 272.333 516.600 270.287 C 516.488 267.350 515.238 266.556 513.000 268.001 "/></g>
<g fill="#FCB820FC" stroke="#FCB820FC">
<path d="M 183.000 214.203 C 183.000 216.121 195.221 218.980 203.582 219.017 C 211.083 219.051 220.904 221.818 227.105 225.646 C 232.176 228.776 233.663 230.377 236.202 235.444 C 237.871 238.775 239.374 241.653 239.542 241.840 C 240.132 242.499 248.923 235.484 248.961 234.323 C 249.093 230.353 230.222 220.179 217.000 217.092 C 208.260 215.051 183.000 212.904 183.000 214.203 "/></g>
<g fill="#DC4030FC" stroke="#DC4030FC">
<path d="M 72.500 470.670 C 61.373 472.045 47.995 474.438 39.000 476.662 C 28.265 479.316 24.075 481.475 25.976 483.376 C 26.539 483.939 27.000 485.211 27.000 486.203 C 27.000 489.579 35.150 487.522 69.250 475.542 C 73.964 473.886 77.000 472.267 77.000 471.410 C 77.000 470.634 76.663 470.067 76.250 470.150 C 75.838 470.232 74.150 470.466 72.500 470.670 "/></g>
<g fill="#984400FC" stroke="#984400FC">
<path d="M 224.367 255.785 C 224.697 256.319 223.287 257.879 221.234 259.252 C 215.686 262.961 201.000 278.140 201.000 280.165 C 201.000 282.574 204.889 286.000 207.623 286.000 C 208.873 286.000 213.113 283.378 217.184 280.086 C 239.217 262.275 238.006 263.434 236.329 261.757 C 234.928 260.356 234.571 260.380 232.639 262.004 C 213.789 277.848 208.555 282.000 207.434 282.000 C 206.700 282.000 205.688 281.265 205.186 280.367 C 204.460 279.070 205.938 277.267 212.386 271.586 C 216.849 267.654 222.460 262.913 224.855 261.051 L 229.210 257.666 226.488 256.240 C 224.992 255.456 224.037 255.251 224.367 255.785 "/></g>
<g fill="#DC4030FC" stroke="#DC4030FC">
<path d="M 121.750 424.062 C 117.488 426.241 114.000 428.491 114.000 429.062 C 114.000 432.423 119.853 439.000 122.844 439.000 C 123.347 439.000 126.327 437.824 129.466 436.387 C 133.827 434.390 134.888 433.506 133.962 432.637 C 133.054 431.785 132.635 431.813 132.292 432.750 C 132.040 433.438 130.778 434.000 129.488 434.000 C 128.198 434.000 126.548 434.563 125.821 435.250 C 125.095 435.938 123.651 436.646 122.614 436.825 C 121.216 437.066 120.892 436.724 121.361 435.503 C 121.708 434.596 121.508 432.949 120.915 431.842 C 119.423 429.053 120.579 428.309 123.000 430.500 C 125.139 432.436 126.466 431.934 126.487 429.179 C 126.495 428.192 127.118 427.652 128.000 427.869 C 132.033 428.863 132.499 428.512 132.807 424.250 C 133.202 418.804 132.072 418.785 121.750 424.062 "/></g>
<g fill="#984400FC" stroke="#984400FC">
<path d="M 236.399 57.602 C 224.786 63.770 213.000 75.522 213.000 80.934 C 213.000 83.294 215.507 81.641 223.110 74.270 C 227.495 70.019 234.214 64.362 238.041 61.700 C 241.869 59.038 245.000 56.441 245.000 55.930 C 245.000 54.251 241.384 54.954 236.399 57.602 "/></g>
<g fill="#984400FC" stroke="#984400FC">
<path d="M 379.000 55.917 C 379.000 56.421 382.488 59.296 386.750 62.306 C 391.013 65.317 398.007 71.035 402.293 75.013 C 406.580 78.992 410.346 81.987 410.663 81.670 C 413.549 78.785 399.231 63.270 388.934 58.125 C 382.690 55.005 379.000 54.185 379.000 55.917 "/></g>
<g fill="#FCBCC4FC" stroke="#FCBCC4FC">
<path d="M 92.704 411.596 C 85.231 415.648 88.307 427.278 97.422 429.434 L 100.345 430.125 97.172 427.161 C 88.992 419.520 98.022 411.690 106.465 419.104 C 110.484 422.632 110.923 422.026 107.918 417.097 C 103.692 410.166 98.683 408.354 92.704 411.596 "/></g>
<g fill="#FCB820FC" stroke="#FCB820FC">
<path d="M 222.237 263.750 C 206.616 276.335 202.676 281.000 207.667 281.000 C 208.519 281.000 214.454 276.629 220.858 271.287 C 227.261 265.945 232.712 261.421 232.971 261.233 C 233.620 260.762 230.772 259.034 229.316 259.015 C 228.665 259.007 225.479 261.138 222.237 263.750 "/></g>
<g fill="#984400FC" stroke="#984400FC">
<path d="M 287.899 240.319 C 284.530 241.184 283.436 241.902 283.812 243.000 C 284.264 244.322 284.115 244.326 282.547 243.032 C 280.942 241.706 280.806 241.754 281.146 243.532 C 281.486 245.305 282.511 245.533 291.507 245.829 C 296.999 246.010 301.118 245.785 300.662 245.329 C 300.206 244.873 299.421 244.444 298.917 244.375 C 295.891 243.962 295.687 243.786 297.439 243.100 C 298.596 242.647 300.544 242.924 302.273 243.786 C 304.404 244.849 305.464 244.936 306.285 244.115 C 307.105 243.295 306.686 243.000 304.700 243.000 C 303.215 243.000 302.000 242.541 302.000 241.981 C 302.000 240.774 306.820 241.751 308.942 243.388 C 310.041 244.235 310.205 244.203 309.633 243.250 C 309.129 242.412 309.560 242.000 310.941 242.000 C 313.153 242.000 313.824 240.459 311.750 240.143 C 305.891 239.252 291.646 239.357 287.899 240.319 "/></g>
<g fill="#000000FC" stroke="#000000FC">
<path d="M 302.750 115.080 C 301.788 115.641 301.000 116.550 301.000 117.101 C 301.000 118.682 307.538 121.000 312.000 121.000 C 319.923 121.000 326.541 116.182 320.750 114.630 C 317.124 113.659 304.656 113.970 302.750 115.080 "/></g>
<g fill="#5C0000FC" stroke="#5C0000FC">
<path d="M 155.843 279.750 C 155.233 281.263 153.746 285.650 152.537 289.500 C 151.195 293.778 149.797 296.500 148.943 296.500 C 148.175 296.500 149.098 297.714 150.995 299.199 L 154.443 301.897 156.662 290.699 C 157.883 284.539 158.908 278.938 158.941 278.250 C 159.050 275.955 156.965 276.964 155.843 279.750 "/></g>
<g fill="#000000FC" stroke="#000000FC">
<path d="M 255.385 100.765 C 253.049 102.304 252.835 105.835 254.949 107.949 C 257.543 110.543 260.438 110.562 263.000 108.000 C 265.269 105.731 265.435 104.682 263.965 101.934 C 262.907 99.957 257.690 99.247 255.385 100.765 "/></g>
<g fill="#000000FC" stroke="#000000FC">
<path d="M 360.604 102.155 C 358.350 105.373 361.064 109.948 365.250 109.985 C 367.352 110.003 371.000 106.569 371.000 104.571 C 371.000 100.149 363.268 98.352 360.604 102.155 "/></g>
<g fill="#5C0000FC" stroke="#5C0000FC">
<path d="M 465.751 277.663 C 465.489 278.123 466.296 283.450 467.544 289.500 C 468.791 295.550 469.854 299.975 469.906 299.333 C 469.958 298.692 471.238 297.715 472.750 297.162 C 474.263 296.610 474.938 296.122 474.250 296.079 C 473.563 296.036 473.000 295.368 473.000 294.596 C 473.000 292.537 468.254 278.854 467.161 277.761 C 466.646 277.246 466.012 277.202 465.751 277.663 "/></g>
<g fill="#DC4030FC" stroke="#DC4030FC">
<path d="M 103.308 480.137 L 101.171 482.273 104.011 484.663 L 106.850 487.052 108.425 484.803 C 110.435 481.934 110.406 481.029 108.250 479.392 C 105.933 477.633 105.790 477.655 103.308 480.137 "/></g>
<g fill="#DC4030FC" stroke="#DC4030FC">
<path d="M 84.250 467.247 C 82.062 467.949 81.000 468.922 81.000 470.224 C 81.000 471.883 81.463 472.060 84.250 471.462 C 88.571 470.535 89.000 470.217 89.000 467.941 C 89.000 465.786 88.864 465.766 84.250 467.247 "/></g>
<g fill="#984400FC" stroke="#984400FC">
<path d="M 335.250 452.789 C 332.086 453.118 331.270 454.368 332.765 456.593 C 333.618 457.861 340.000 455.623 340.000 454.056 C 340.000 452.698 338.916 452.409 335.250 452.789 "/></g>
<g fill="#984400FC" stroke="#984400FC">
<path d="M 284.326 453.281 C 283.463 454.678 285.402 456.059 288.551 456.290 C 290.516 456.434 291.529 455.985 291.762 454.865 C 292.016 453.646 291.185 453.124 288.490 452.809 C 286.504 452.577 284.630 452.789 284.326 453.281 "/></g>
<g fill="#5C0000FC" stroke="#5C0000FC">
<path d="M 96.598 461.163 C 93.989 464.889 97.210 466.635 100.331 463.186 C 101.597 461.787 101.701 461.101 100.786 460.186 C 99.112 458.512 98.327 458.695 96.598 461.163 "/></g>
<g fill="#DC4030FC" stroke="#DC4030FC">
<path d="M 207.176 243.224 C 205.044 245.356 205.776 248.000 208.500 248.000 C 210.279 248.000 211.000 247.459 211.000 246.122 C 211.000 243.462 208.689 241.711 207.176 243.224 "/></g>
<g fill="#900400FC" stroke="#900400FC">
<path d="M 503.638 224.500 C 503.322 225.325 503.463 226.000 503.952 226.000 C 504.441 226.000 505.135 227.463 505.495 229.250 C 506.829 235.879 506.988 236.154 508.568 234.574 C 510.531 232.612 510.382 231.438 508.381 233.099 C 506.924 234.308 506.811 234.026 507.245 230.266 C 507.510 227.970 507.451 226.124 507.114 226.164 C 505.259 226.384 504.891 225.836 506.000 224.500 C 507.013 223.279 506.963 223.000 505.729 223.000 C 504.896 223.000 503.955 223.675 503.638 224.500 "/></g>
<g fill="#900400FC" stroke="#900400FC">
<path d="M 496.588 208.632 C 496.245 209.524 496.478 210.871 497.105 211.627 C 497.732 212.382 498.077 213.053 497.872 213.118 C 497.668 213.184 497.792 213.199 498.150 213.152 C 498.507 213.105 499.092 214.230 499.449 215.651 C 499.805 217.073 500.372 217.962 500.707 217.627 C 501.042 217.292 501.920 217.519 502.658 218.131 C 503.645 218.950 504.000 218.948 504.000 218.122 C 504.000 217.505 503.523 217.000 502.941 217.000 C 502.359 217.000 502.203 216.480 502.595 215.845 C 503.070 215.077 502.866 214.965 501.985 215.510 C 501.015 216.109 500.836 215.868 501.319 214.612 C 501.681 213.668 501.583 213.140 501.102 213.437 C 499.802 214.240 497.688 211.256 498.344 209.545 C 498.657 208.730 498.529 207.827 498.061 207.538 C 497.593 207.248 496.930 207.741 496.588 208.632 "/></g>
<g fill="#900400FC" stroke="#900400FC">
<path d="M 483.504 185.694 C 483.693 186.687 483.939 187.050 484.051 186.500 C 484.163 185.950 484.363 186.400 484.494 187.500 C 484.625 188.600 485.805 191.239 487.116 193.365 C 488.427 195.491 489.388 196.728 489.250 196.115 C 489.113 195.502 489.550 195.000 490.223 195.000 C 490.895 195.000 490.437 194.294 489.206 193.432 C 487.974 192.569 487.228 191.441 487.547 190.925 C 487.866 190.408 487.452 189.727 486.627 189.410 C 485.801 189.094 485.343 188.269 485.609 187.577 C 485.874 186.886 485.432 185.773 484.626 185.104 C 483.422 184.106 483.222 184.211 483.504 185.694 "/></g>
<g fill="#FCBCC4FC" stroke="#FCBCC4FC">
<path d="M 99.000 421.523 C 99.000 422.388 100.463 423.708 102.250 424.456 C 105.021 425.614 105.457 425.608 105.207 424.411 C 105.046 423.639 103.583 422.319 101.957 421.478 C 99.286 420.096 99.000 420.101 99.000 421.523 "/></g>
<g fill="#900400FC" stroke="#900400FC">
<path d="M 509.211 236.601 C 508.501 237.370 508.291 238.000 508.742 238.000 C 509.194 238.000 509.660 239.161 509.777 240.581 C 509.895 242.000 510.432 243.913 510.972 244.831 C 511.663 246.008 511.811 244.903 511.472 241.079 C 511.208 238.098 510.881 235.555 510.746 235.430 C 510.611 235.304 509.920 235.831 509.211 236.601 "/></g>
<g fill="#DC4030FC" stroke="#DC4030FC">
<path d="M 217.104 239.914 C 216.318 240.413 215.984 241.515 216.339 242.442 C 216.838 243.741 217.386 243.864 218.948 243.028 C 220.113 242.404 220.691 241.359 220.356 240.485 C 219.703 238.784 219.066 238.672 217.104 239.914 "/></g>
<g fill="#900400FC" stroke="#900400FC">
<path d="M 122.128 219.809 C 122.057 220.529 121.601 220.871 121.113 220.570 C 119.652 219.667 118.042 222.444 118.658 224.802 C 119.478 227.935 120.824 227.532 120.213 224.336 C 119.816 222.256 120.035 221.799 121.211 222.251 C 122.302 222.669 122.655 222.231 122.487 220.665 C 122.360 219.474 122.198 219.089 122.128 219.809 "/></g>
<g fill="#900400FC" stroke="#900400FC">
<path d="M 124.527 212.914 C 124.158 214.077 123.478 214.795 123.016 214.510 C 122.032 213.902 122.282 216.616 123.304 217.638 C 123.687 218.020 124.000 217.583 124.000 216.667 C 124.000 215.750 124.477 215.000 125.059 215.000 C 125.641 215.000 125.840 214.550 125.500 214.000 C 125.160 213.450 125.449 213.000 126.141 213.000 C 127.057 213.000 127.100 212.700 126.299 211.899 C 125.498 211.098 125.016 211.375 124.527 212.914 "/></g>
<g fill="#FCB424FC" stroke="#FCB424FC">
<path d="M 246.405 219.155 C 245.981 219.839 246.128 220.039 246.765 219.645 C 247.356 219.280 248.728 220.110 249.814 221.490 C 252.613 225.049 253.517 224.618 250.842 221.000 C 248.441 217.752 247.510 217.365 246.405 219.155 "/></g>
</svg>
