<svg xmlns="http://www.w3.org/2000/svg" xmlns:xlink="http://www.w3.org/1999/xlink" version="1.1" width="28.75200080871582" height="40.41800308227539" viewBox="-0.18399998545646667 -0.3999999985098839 28.75200080871582 40.41800308227539">
  <!-- Exported by Scratch - http://scratch.mit.edu/ -->
  <path id="ID0.4818909312598407" fill="#51005F" d="M 11.413 39.518 C 8.523 39.518 5.811 39.196 3.974 38.634 L 2.091 38.06 L 1.755 36.12 C 1.391 34.027 1.032 31.642 0.692 29.037 L 0.316 26.172 L 3.13 25.509 C 4.064 25.288 5.061 25.08 5.937 24.926 L 8.81 24.418 L 10.485 30.514 C 10.924 30.586 11.503 30.636 12.256 30.636 C 14.104 30.636 15.74 30.094 16.403 29.56 C 17.187 28.885 17.546 28.072 17.546 26.885 C 17.546 23.77 13.02 23.68 12.504 23.68 L 6.023 23.68 L 5.835 20.68 C 5.774 19.711 5.726 18.684 5.785 17.746 L 5.939 15.293 C 5.42 15.244 4.879 15.185 4.351 15.091 L 1.523 14.591 L 1.767 10.929 C 1.899 8.937 2.036 6.876 2.215 4.854 L 2.371 3.075 L 3.971 2.275 C 5.28 1.621 8.88 0.1 14.044 0.1 C 16.703 0.1 20.145 0.393 23.174 2.683 C 25.56 4.454 27.175 7.6 27.175 10.499 C 27.175 13.487 26.049 16.148 23.989 18.198 C 26.574 20.205 28.068 23.156 28.068 26.537 C 28.068 30.444 26.33 33.768 22.902 36.418 C 20.251 38.422 16.178 39.518 11.413 39.518 L 11.413 39.518 Z M 10.324 14.733 C 12.533 14.634 16.753 14.063 16.753 11.145 C 16.753 10.214 16.502 9.86 16.256 9.635 C 15.761 9.161 14.788 8.933 13.399 8.933 C 12.666 8.933 11.956 9.041 11.366 9.236 L 10.324 14.733 Z " stroke-width="1"/>
  <path id="ID0.40739983040839434" fill="#FFFFFF" d="M 11.413 37.018 C 8.8 37.018 6.292 36.728 4.704 36.244 L 4.292 36.118 L 4.219 35.694 C 3.856 33.61 3.504 31.261 3.171 28.713 L 3.089 28.087 L 3.704 27.941 C 4.603 27.729 5.553 27.533 6.375 27.386 L 7.003 27.275 L 8.413 32.409 C 8.427 32.447 8.465 32.488 8.529 32.55 C 9.444 32.944 10.666 33.136 12.257 33.136 C 14.503 33.136 16.747 32.496 17.975 31.504 C 19.365 30.313 20.047 28.797 20.047 26.885 C 20.047 22.944 16.259 21.18 12.505 21.18 L 8.372 21.18 L 8.331 20.524 C 8.275 19.637 8.23 18.706 8.281 17.903 L 8.323 17.234 C 8.323 17.234 9.333 17.253 9.499 17.253 C 15.606 17.253 19.253 14.97 19.253 11.146 C 19.253 9.694 18.824 8.596 17.942 7.791 C 16.986 6.874 15.504 6.435 13.398 6.435 C 11.787 6.435 10.26 6.827 9.192 7.512 C 9.162 7.553 9.129 7.609 9.12 7.66 L 8.105 13.015 L 7.453 12.934 C 7.162 12.897 6.844 12.868 6.516 12.838 C 5.939 12.784 5.342 12.729 4.786 12.631 L 4.168 12.522 L 4.263 11.098 C 4.395 9.111 4.532 7.056 4.707 5.078 L 4.741 4.689 L 5.091 4.514 C 6.24 3.939 9.413 2.603 14.044 2.603 C 16.454 2.603 19.244 2.85 21.666 4.681 C 23.436 5.994 24.675 8.389 24.675 10.503 C 24.675 14.545 22.071 17.168 19.173 18.514 C 23.114 19.713 25.569 22.719 25.569 26.541 C 25.569 29.678 24.197 32.262 21.375 34.443 C 19.204 36.08 15.575 37.018 11.413 37.018 L 11.413 37.018 Z " stroke-width="1"/>
</svg>