<svg xmlns="http://www.w3.org/2000/svg" xmlns:xlink="http://www.w3.org/1999/xlink" version="1.1" width="28.389999389648438" height="40.03300094604492" viewBox="-0.1419999897480011 -0.014999985694885254 28.389999389648438 40.03300094604492">
  <!-- Exported by Scratch - http://scratch.mit.edu/ -->
  <path id="ID0.36594809917733073" fill="#51005F" d="M 10.843 39.518 C 8.368 39.518 5.996 39.251 4.164 38.766 L 2.189 38.244 L 1.832 36.232 C 1.335 33.427 0.981 31.208 0.719 29.244 L 0.358 26.523 L 2.992 25.751 C 3.909 25.48 4.883 25.313 5.665 25.177 L 8.86 24.617 L 10.462 30.621 C 10.752 30.66 11.108 30.685 11.539 30.685 C 13.385 30.685 15.149 30.17 16.143 29.341 C 16.987 28.634 17.474 27.429 17.474 26.04 C 17.474 24.636 17.474 21.345 10.992 21.345 C 9.123 21.345 6.96 21.659 6.482 21.743 L 4.705 22.056 L 2.248 19.243 L 2.399 17.848 C 2.813 14.078 3.463 9.043 4.037 4.6 L 4.556 0.595 L 15.511 0.595 C 17.929 0.595 21.241 0.595 23.945 0.546 L 27.203 0.485 L 27.203 3.745 C 27.203 4.864 27.098 6.168 26.914 7.325 L 26.481 10.053 L 23.719 10.024 C 20.258 9.985 16.72 9.977 12.887 9.975 C 12.862 10.134 12.616 11.684 12.571 11.967 C 12.688 11.966 12.808 11.966 12.929 11.966 C 23.111 11.966 27.748 18.67 27.748 24.898 C 27.748 29.41 25.751 33.613 22.405 36.14 C 19.392 38.385 15.506 39.518 10.843 39.518 L 10.843 39.518 Z " stroke-width="1"/>
  <path id="ID0.6028518392704427" fill="#FFFFFF" d="M 10.843 37.018 C 8.577 37.018 6.433 36.781 4.804 36.349 L 4.372 36.235 L 4.294 35.795 C 3.804 33.031 3.455 30.846 3.197 28.914 L 3.118 28.318 L 3.694 28.15 C 4.473 27.92 5.332 27.771 6.09 27.64 L 7.033 27.474 L 8.39 32.564 C 8.4 32.589 8.426 32.621 8.503 32.676 C 9.282 33.014 10.303 33.185 11.536 33.185 C 13.976 33.185 16.296 32.466 17.741 31.262 C 19.158 30.074 19.971 28.169 19.971 26.04 C 19.971 20.093 15.086 18.845 10.989 18.845 C 8.973 18.845 6.688 19.168 6.046 19.281 L 5.657 19.349 L 4.848 18.423 L 4.881 18.118 C 5.29 14.39 5.94 9.359 6.513 4.92 L 6.749 3.095 L 15.507 3.095 C 17.935 3.095 21.26 3.095 23.986 3.046 L 24.699 3.033 L 24.699 3.746 C 24.699 4.738 24.605 5.9 24.441 6.934 L 24.346 7.531 L 23.742 7.525 C 19.476 7.478 15.048 7.476 10.746 7.476 C 10.596 8.453 10.439 9.43 10.285 10.399 C 10.058 11.825 9.833 13.236 9.629 14.615 C 10.666 14.511 11.68 14.467 12.926 14.467 C 21.436 14.467 25.245 19.706 25.245 24.899 C 25.245 28.631 23.619 32.088 20.895 34.147 C 18.338 36.052 14.956 37.018 10.843 37.018 L 10.843 37.018 Z " stroke-width="1"/>
</svg>