<svg xmlns="http://www.w3.org/2000/svg" xmlns:xlink="http://www.w3.org/1999/xlink" version="1.1" width="81.9" height="79.30000152587891" viewBox="0.650000023841858 0.9500000953674317 81.9 79.30000152587891">
  <!-- Exported by Scratch - http://scratch.mit.edu/ -->
  <g id="Layer_2_2_">
    <path id="ID0.39854341372847557_1_" fill="#FAA51F" stroke="#8E5322" stroke-width="1.4" stroke-linecap="round" stroke-linejoin="round" d="M 40.25 79.55 "/>
  </g>
  <g id="Layer_2_1_">
    <path id="ID0.2591130444779992_1_" fill="#FAA51F" d="M 40.35 9.85 C 41.85 9.75 44.95 9.55 46.65 9.65 C 51.25 9.85 55.55 11.55 55.55 11.55 L 68.15 3.35 L 65.95 21.65 C 65.35 20.85 76.15 34.05 69.35 45.05 C 62.45 56.15 47.85 61.05 29.65 57.45 C 11.45 53.85 7.15 43.35 8.35 37.85 C 9.55 32.35 16.45 30.25 16.45 30.25 C 16.45 30.25 16.55 25.95 19.65 20.65 C 21.55 17.45 27.75 12.85 27.75 12.85 L 30.55 1.65 L 37.75 8.65 L 40.35 9.85 Z " stroke-width="1"/>
    <path id="ID0.3588979784399271_1_" fill="#FFFFFF" d="M 17.35 30.15 L 19.75 28.15 L 28.55 30.75 C 28.55 30.75 28.55 34.05 32.75 34.95 C 36.95 35.85 44.05 34.25 44.05 34.25 L 51.15 36.05 C 51.15 36.05 59.25 35.55 59.65 41.95 C 60.35 53.05 51.05 58.35 42.55 58.25 C 37.05 58.25 33.55 57.55 29.65 56.85 C 12.45 53.75 7.55 43.35 9.05 37.85 C 10.25 32.35 16.85 30.75 16.85 30.75 L 17.35 30.15 Z " stroke-width="1"/>
    <path id="ID0.2727069961838424_1_" fill="none" stroke="#8E5322" stroke-width="1.4" stroke-linecap="round" stroke-linejoin="round" d="M 12.35 35.55 C 12.35 35.55 7.95 34.85 5.75 34.05 C 3.15 33.15 1.35 31.55 1.35 31.55 "/>
    <path id="ID0.5861211125738919_1_" fill="none" stroke="#8E5322" stroke-width="1.4" stroke-linecap="round" stroke-linejoin="round" d="M 11.85 41.35 C 11.85 41.35 9.25 42.45 6.45 42.65 C 3.75 42.95 1.95 42.75 1.95 42.75 "/>
    <path id="ID0.4793355236761272_1_" fill="none" stroke="#8E5322" stroke-width="1.4" stroke-linecap="round" stroke-linejoin="round" d="M 57.85 10.05 L 52.65 13.65 "/>
    <path id="ID0.48413723474368453_1_" fill="none" stroke="#8E5322" stroke-width="1.4" stroke-linecap="round" stroke-linejoin="round" d="M 40.35 9.85 C 41.85 9.75 44.95 9.55 46.65 9.65 C 51.25 9.85 55.55 11.55 55.55 11.55 L 68.15 3.35 L 65.95 21.65 C 65.35 20.85 76.15 34.05 69.35 45.05 C 62.45 56.15 47.85 61.05 29.65 57.45 C 11.45 53.85 7.15 43.35 8.35 37.85 C 9.55 32.35 16.45 30.25 16.45 30.25 C 16.45 30.25 16.55 25.95 19.65 20.65 C 21.55 17.45 27.75 12.85 27.75 12.85 L 30.55 1.65 L 37.75 8.65 L 40.35 9.85 Z "/>
    <path id="ID0.9024141579866409_1_" fill="none" stroke="#8E5322" stroke-width="1.4" stroke-linecap="round" stroke-linejoin="round" d="M 81.05 40.85 C 81.05 40.85 77.05 41.25 75.25 41.15 C 73.45 41.05 69.95 40.55 69.95 40.55 "/>
    <path id="ID0.16030752705410123_1_" fill="none" stroke="#8E5322" stroke-width="1.4" stroke-linecap="round" stroke-linejoin="round" d="M 69.75 36.75 C 69.75 36.75 72.05 35.05 75.65 33.45 C 79.65 31.65 81.85 31.25 81.85 31.25 "/>
  </g>
  <g id="Layer_5_1_">
    <path id="ID0.40023312577977777_1_" fill="#FFFFFF" stroke="#8E5322" stroke-width="1.4" stroke-linecap="round" stroke-linejoin="round" d="M 21.85 20.75 C 19.05 25.05 18.95 30.05 21.65 31.75 C 24.35 33.55 28.85 31.45 31.65 27.05 C 34.45 22.75 34.55 17.75 31.85 16.05 C 29.15 14.35 24.65 16.45 21.85 20.75 Z "/>
    <path id="ID0.43813491938635707_1_" fill="#414142" d="M 21.95 24.35 C 21.65 25.35 22.15 26.35 23.15 26.65 C 24.05 26.95 25.05 26.35 25.35 25.25 C 25.65 24.25 25.15 23.25 24.15 22.95 C 23.15 22.75 22.25 23.35 21.95 24.35 " stroke-width="1"/>
  </g>
  <g id="Layer_7_1_">
    <path id="ID0.4253597157076001_1_" fill="#FFFFFF" stroke="#8E5322" stroke-width="1.4" stroke-linecap="round" stroke-linejoin="round" d="M 45.05 23.85 C 42.25 28.15 42.55 33.35 45.75 35.45 C 48.95 37.55 53.85 35.75 56.65 31.35 C 59.45 27.05 59.15 21.85 55.95 19.75 C 52.75 17.75 47.85 19.55 45.05 23.85 Z "/>
    <path id="ID0.814307457767427_1_" fill="#414142" d="M 45.35 27.75 C 45.35 28.75 46.15 29.65 47.05 29.65 C 48.05 29.65 48.75 28.85 48.75 27.75 C 48.75 26.75 47.95 25.85 47.05 25.85 C 46.15 25.85 45.35 26.65 45.35 27.75 " stroke-width="1"/>
  </g>
  <path id="ID0.5240494590252638_1_" fill="#5F4B43" stroke="#8E5322" stroke-width="1.4" stroke-linecap="round" stroke-linejoin="round" d="M 34 33.9 C 32.3 33.7 30 32.4 29.7 34.3 C 29.7 35.1 31.3 38.4 33.1 38.5 C 35.1 38.6 38.6 36.1 38.5 34.6 C 38.4 33.1 35.5 34.1 34 33.9 Z "/>
  <path id="ID0.046259244438260794_1_" fill="#FFFFFF" stroke="#8E5322" stroke-width="1.4" stroke-linecap="round" stroke-linejoin="round" d="M 43.1 49.3 C 43.1 49.3 40.6 51.6 35.2 50.5 "/>
</svg>