<svg xmlns="http://www.w3.org/2000/svg" xmlns:xlink="http://www.w3.org/1999/xlink" version="1.1" width="28.28499984741211" height="40.02199935913086" viewBox="0.00700002908706665 -0.5 28.28499984741211 40.02199935913086">
  <!-- Exported by Scratch - http://scratch.mit.edu/ -->
  <path id="ID0.02723149210214615" fill="#51005F" d="M 1.53 39.022 L 1.53 35.822 C 1.53 35.009 1.53 34.168 1.589 33.359 L 1.798 30.442 L 9.888 30.294 C 9.914 24.52 9.921 18.664 9.922 12.378 C 9.834 12.402 9.426 12.514 9.426 12.514 C 8.187 12.856 6.866 13.22 5.394 13.631 L 2.118 14.546 L 1.404 11.221 C 1.356 11.001 1.297 10.773 1.236 10.544 C 1.1 10.026 0.954 9.467 0.868 8.864 L 0.507 6.295 L 2.942 5.408 C 6.571 4.086 10.624 2.345 13.046 1.304 C 15.907 0.074 16.079 0 16.846 0 C 18.724 0 20.196 1.493 20.196 3.399 C 20.196 9.864 20.151 16.71 20.106 23.515 L 20.063 30.3 L 27.792 30.448 L 27.792 33.587 C 27.792 34.339 27.792 35.191 27.733 36.001 L 27.519 38.972 L 14.859 38.972 C 13.295 38.972 11.708 38.984 10.079 38.995 C 8.311 39.009 6.553 39.021 4.73 39.021 L 1.53 39.021 Z " stroke-width="1"/>
  <path id="ID0.062325790990144014" fill="#FFFFFF" d="M 4.03 36.522 L 4.03 35.822 C 4.03 35.052 4.03 34.258 4.082 33.538 L 4.128 32.9 L 12.375 32.748 C 12.42 24.905 12.422 16.881 12.422 9.09 C 11.275 9.412 10.118 9.73 8.883 10.07 C 7.606 10.422 6.244 10.797 4.721 11.223 L 4.004 11.423 L 3.848 10.695 C 3.792 10.437 3.723 10.172 3.653 9.905 C 3.534 9.449 3.41 8.978 3.343 8.511 L 3.264 7.95 L 3.797 7.756 C 7.488 6.411 11.583 4.652 14.03 3.601 C 16.521 2.531 16.614 2.5 16.845 2.5 C 17.254 2.5 17.695 2.781 17.695 3.399 C 17.695 9.859 17.65 16.699 17.605 23.5 C 17.585 26.605 17.565 29.703 17.548 32.753 L 25.291 32.901 L 25.291 33.588 C 25.291 34.298 25.291 35.102 25.239 35.822 L 25.192 36.472 L 14.859 36.472 C 13.289 36.472 11.695 36.484 10.06 36.495 C 8.335 36.509 6.565 36.521 4.73 36.521 L 4.03 36.521 Z " stroke-width="1"/>
</svg>