<svg xmlns="http://www.w3.org/2000/svg" xmlns:xlink="http://www.w3.org/1999/xlink" version="1.1" width="28.899999618530273" height="40.41800308227539" viewBox="-0.5 -0.3999999985098839 28.899999618530273 40.41800308227539">
  <!-- Exported by Scratch - http://scratch.mit.edu/ -->
  <path id="ID0.6676496332511306" fill="#51005F" d="M 13.577 39.518 C 10.200 39.518 7.329 38.396 5.045 36.184 C 1.688 32.828 0 27.669 0 20.827 C 0 13.268 1.921 7.351 5.556 3.718 C 7.998 1.342 11.090 0.100 14.521 0.100 C 18.085 0.100 20.958 1.305 23.301 3.783 C 26.236 7.009 27.900 12.684 27.900 19.387 C 27.900 26.697 26.094 32.273 22.533 35.961 C 20.270 38.290 17.175 39.518 13.577 39.518 L 13.577 39.518 Z M 14.074 8.784 C 13.580 8.784 13.207 8.842 12.560 9.618 C 11.825 10.509 10.421 13.958 10.421 20.578 C 10.421 25.057 11.283 28.647 12.136 29.879 C 12.742 30.722 13.235 30.883 13.974 30.883 C 14.319 30.883 14.840 30.807 15.388 30.149 C 16.175 29.216 17.477 26.701 17.477 20.181 C 17.477 13.803 16.366 10.545 15.779 9.714 C 15.210 8.920 14.853 8.784 14.074 8.784 L 14.074 8.784 Z " stroke-width="1"/>
  <path id="ID0.5653047654777765" fill="#FFFFFF" d="M 13.577 37.018 C 10.833 37.018 8.611 36.158 6.784 34.388 C 3.938 31.542 2.500 26.982 2.500 20.827 C 2.500 13.945 4.168 8.640 7.323 5.486 C 9.268 3.595 11.754 2.600 14.521 2.600 C 17.401 2.600 19.614 3.522 21.485 5.500 C 23.940 8.200 25.400 13.387 25.400 19.387 C 25.400 26.026 23.831 31.017 20.735 34.223 C 18.958 36.052 16.483 37.018 13.577 37.018 L 13.577 37.018 Z M 14.074 6.284 C 12.679 6.284 11.652 6.803 10.639 8.018 C 9.326 9.609 7.921 13.746 7.921 20.579 C 7.921 25.199 8.769 29.408 10.080 31.303 C 11.113 32.739 12.316 33.384 13.974 33.384 C 15.265 33.384 16.418 32.819 17.309 31.750 C 19.080 29.651 19.977 25.761 19.977 20.182 C 19.977 13.653 18.864 9.749 17.821 8.272 C 16.809 6.861 15.722 6.284 14.074 6.284 L 14.074 6.284 Z " stroke-width="1"/>
</svg>