<svg xmlns="http://www.w3.org/2000/svg" xmlns:xlink="http://www.w3.org/1999/xlink" version="1.1" width="31.48699951171875" height="39.625" viewBox="-0.3889999985694885 -0.1029999852180481 31.48699951171875 39.625">
  <!-- Exported by Scratch - http://scratch.mit.edu/ -->
  <path id="ID0.4398354282602668" fill="#51005F" d="M 9.846 39.022 L 9.846 35.822 C 9.846 35.023 9.846 34.267 9.905 33.459 L 10.11 30.573 L 11.761 30.525 C 8.803 30.531 5.822 30.532 4.904 30.532 L 2.926 30.532 L 2.041 28.763 C 1.466 27.613 0.995 26.519 0.642 25.509 L 0.111 23.98 L 1.019 22.648 C 2.898 19.903 5.198 16.702 8.074 12.74 C 11.517 8.012 14.311 4.193 16.344 1.616 L 17.304 0.397 L 18.857 0.397 C 20.03 0.397 21.244 0.397 22.438 0.511 L 25.356 0.788 L 25.208 21.443 C 26.013 21.436 26.732 21.424 27.27 21.403 L 30.598 21.269 L 30.598 24.6 C 30.598 25.48 30.598 26.576 30.478 27.604 L 30.148 30.432 L 25.657 30.432 L 28.792 30.513 L 29.001 33.407 C 29.069 34.363 29.001 35.31 28.951 36.002 L 28.737 38.973 L 19.951 38.973 C 18.734 38.973 17.506 38.987 16.318 38.998 C 15.169 39.011 14.068 39.022 13.048 39.022 L 9.846 39.022 Z M 15.228 21.447 L 15.249 18.142 C 15.188 18.227 15.128 18.313 15.067 18.399 C 14.362 19.409 13.671 20.429 12.993 21.443 C 12.992 21.443 14.518 21.447 15.228 21.447 Z " stroke-width="1"/>
  <path id="ID0.12770747812464833" fill="#FFFFFF" d="M 12.346 36.522 L 12.346 35.822 C 12.346 35.069 12.346 34.357 12.398 33.637 L 12.443 33.005 L 17.758 32.851 L 17.758 27.995 C 14.99 28.03 6.702 28.032 4.904 28.032 L 4.471 28.032 L 4.278 27.645 C 3.751 26.591 3.321 25.594 3.002 24.683 L 2.886 24.349 L 3.085 24.056 C 4.947 21.335 7.235 18.152 10.098 14.209 C 13.516 9.516 16.289 5.723 18.307 3.164 L 18.517 2.897 L 18.857 2.897 C 19.972 2.897 21.125 2.897 22.201 3 L 22.84 3.061 L 22.691 23.95 C 24.561 23.949 26.279 23.945 27.37 23.901 L 28.099 23.872 L 28.099 24.6 C 28.099 25.415 28.099 26.429 27.995 27.313 L 27.923 27.932 L 22.672 27.932 C 22.641 29.564 22.637 31.226 22.637 32.855 L 26.462 32.954 L 26.508 33.588 C 26.563 34.358 26.505 35.17 26.458 35.822 L 26.411 36.472 L 19.951 36.472 C 18.722 36.472 17.479 36.486 16.279 36.497 C 15.151 36.51 14.059 36.521 13.049 36.521 L 12.346 36.521 Z M 8.35 23.915 C 10.861 23.944 15.483 23.949 17.713 23.95 L 17.796 10.144 C 17.332 10.806 16.88 11.455 16.411 12.125 C 15.432 13.527 14.384 15.027 13.022 16.96 C 11.683 18.878 10.409 20.807 9.175 22.67 L 8.35 23.915 Z " stroke-width="1"/>
</svg>