<svg xmlns="http://www.w3.org/2000/svg" xmlns:xlink="http://www.w3.org/1999/xlink" version="1.1" width="81.9" height="74.60000457763672" viewBox="0.650000023841858 -0.34999997615814205 81.9 74.60000457763672">
  <!-- Exported by Scratch - http://scratch.mit.edu/ -->
  <g id="Layer_2_2_">
    <path id="ID0.39854341372847557_1_" fill="#FAA51F" stroke="#8E5322" stroke-width="1.4" stroke-linecap="round" stroke-linejoin="round" d="M 40.25 73.55 "/>
  </g>
  <g id="Layer_2_1_">
    <path id="ID0.2591130444779992_1_" fill="#FAA51F" d="M 40.35 3.85 C 41.85 3.75 44.95 3.55 46.65 3.65 C 51.25 3.85 52.522 5.441 55.55 5.55 L 72.1 4.85 L 65.95 15.65 C 63.906 19.34 76.15 28.05 69.35 39.05 C 62.45 50.15 47.85 55.05 29.65 51.45 C 11.45 47.85 7.15 37.35 8.35 31.85 C 9.55 26.35 16.45 24.25 16.45 24.25 C 16.45 24.25 17.983 17.579 19.65 14.65 C 20.984 12.306 24.19 11.25 25.35 8.75 L 26.25 0.35 L 37.75 2.65 L 40.35 3.85 Z " stroke-width="1"/>
    <path id="ID0.3588979784399271_1_" fill="#FFFFFF" d="M 17.35 24.15 L 19.75 22.15 L 28.55 24.75 C 28.55 24.75 28.55 28.05 32.75 28.95 C 36.95 29.85 44.05 28.25 44.05 28.25 L 51.15 30.05 C 51.15 30.05 59.25 29.55 59.65 35.95 C 60.35 47.05 51.05 52.35 42.55 52.25 C 37.05 52.25 33.55 51.55 29.65 50.85 C 12.45 47.75 7.55 37.35 9.05 31.85 C 10.25 26.35 16.85 24.75 16.85 24.75 L 17.35 24.15 Z " stroke-width="1"/>
    <path id="ID0.2727069961838424_1_" fill="none" stroke="#8E5322" stroke-width="1.4" stroke-linecap="round" stroke-linejoin="round" d="M 12.35 29.55 C 12.35 29.55 7.95 28.85 5.75 28.05 C 3.15 27.15 1.35 25.55 1.35 25.55 "/>
    <path id="ID0.5861211125738919_1_" fill="none" stroke="#8E5322" stroke-width="1.4" stroke-linecap="round" stroke-linejoin="round" d="M 11.85 35.35 C 11.85 35.35 9.25 36.45 6.45 36.65 C 3.75 36.95 1.95 36.75 1.95 36.75 "/>
    <path id="ID0.4793355236761272_1_" fill="none" stroke="#8E5322" stroke-width="1.4" stroke-linecap="round" stroke-linejoin="round" d="M 58.6 5.6 L 51.85 5.95 "/>
    <path id="ID0.48413723474368453_1_" fill="none" stroke="#8E5322" stroke-width="1.4" stroke-linecap="round" stroke-linejoin="round" d="M 40.35 3.85 C 41.85 3.75 44.95 3.55 46.65 3.65 C 51.25 3.85 52.522 5.449 55.55 5.55 L 72.35 4.75 L 65.95 15.65 C 63.842 19.36 76.15 28.05 69.35 39.05 C 62.45 50.15 47.85 55.05 29.65 51.45 C 11.45 47.85 7.15 37.35 8.35 31.85 C 9.55 26.35 16.45 24.25 16.45 24.25 C 16.45 24.25 17.931 17.548 19.65 14.65 C 21.06 12.274 24.371 11.343 25.6 8.85 L 26.35 0.6 L 37.75 2.65 L 40.35 3.85 Z "/>
    <path id="ID0.9024141579866409_1_" fill="none" stroke="#8E5322" stroke-width="1.4" stroke-linecap="round" stroke-linejoin="round" d="M 81.05 34.85 C 81.05 34.85 77.05 35.25 75.25 35.15 C 73.45 35.05 69.95 34.55 69.95 34.55 "/>
    <path id="ID0.16030752705410123_1_" fill="none" stroke="#8E5322" stroke-width="1.4" stroke-linecap="round" stroke-linejoin="round" d="M 69.75 30.75 C 69.75 30.75 72.05 29.05 75.65 27.45 C 79.65 25.65 81.85 25.25 81.85 25.25 "/>
  </g>
  <path id="ID0.40023312577977777_1_" fill="#FFFFFF" stroke="#8E5322" stroke-width="1.4" stroke-linecap="round" stroke-linejoin="round" d="M 21.85 14.8 C 19.05 19.1 18.95 24.1 21.65 25.8 C 24.35 27.6 28.85 25.5 31.65 21.1 C 34.45 16.8 34.55 11.8 31.85 10.1 C 29.15 8.4 24.65 10.5 21.85 14.8 Z "/>
  <path id="ID0.43813491938635707_1_" fill="#414142" d="M 22 22 C 21.7 23 22.2 24 23.2 24.3 C 24.1 24.6 25.1 24 25.4 22.9 C 25.7 21.9 25.2 20.9 24.2 20.6 C 23.2 20.4 22.3 21 22 22 " stroke-width="1"/>
  <path id="ID0.4253597157076001_1_" fill="#FFFFFF" stroke="#8E5322" stroke-width="1.4" stroke-linecap="round" stroke-linejoin="round" d="M 45.05 17.9 C 42.25 22.2 42.55 27.4 45.75 29.5 C 48.95 31.6 53.85 29.8 56.65 25.4 C 59.45 21.1 59.15 15.9 55.95 13.8 C 52.75 11.8 47.85 13.6 45.05 17.9 Z "/>
  <path id="ID0.814307457767427_1_" fill="#414142" d="M 46.75 27.05 C 46.75 28.05 47.55 28.95 48.45 28.95 C 49.45 28.95 50.15 28.15 50.15 27.05 C 50.15 26.05 49.35 25.15 48.45 25.15 C 47.55 25.15 46.75 25.95 46.75 27.05 " stroke-width="1"/>
  <path id="ID0.5240494590252638_1_" fill="#5F4B43" stroke="#8E5322" stroke-width="1.4" stroke-linecap="round" stroke-linejoin="round" d="M 34 27.9 C 32.3 27.7 30 26.4 29.7 28.3 C 29.7 29.1 31.3 32.4 33.1 32.5 C 35.1 32.6 38.6 30.1 38.5 28.6 C 38.4 27.1 35.5 28.1 34 27.9 Z "/>
  <path id="ID0.046259244438260794_1_" fill="#FFFFFF" stroke="#8E5322" stroke-width="1.4" stroke-linecap="round" stroke-linejoin="round" d="M 42.5 45.65 C 42.5 45.65 40 43.35 34.6 44.45 "/>
</svg>