<svg xmlns="http://www.w3.org/2000/svg" xmlns:xlink="http://www.w3.org/1999/xlink" version="1.1" width="30.362001419067383" height="39.5260009765625" viewBox="-0.20399996638298035 0.09700006246566772 30.362001419067383 39.5260009765625">
  <!-- Exported by Scratch - http://scratch.mit.edu/ -->
  <path id="ID0.9795679207891226" fill="#51005F" d="M 7.369 39.122 L 7.369 35.922 C 7.369 33.709 7.514 31.274 8.562 28.451 C 10.381 23.496 13.316 17.571 17.212 10.042 C 15.651 10.032 14.335 10.025 13.227 10.025 C 12.337 10.025 11.217 10.029 10.355 10.053 L 8.918 15.392 L 6.172 15.068 C 5.423 14.98 4.295 14.819 3.183 14.558 L 0.296 13.878 L 2.369 0.597 L 5.107 0.597 C 5.356 0.597 6.423 0.614 6.423 0.614 C 7.278 0.628 8.379 0.646 9.426 0.646 L 27.244 0.646 L 28.11 2.482 C 28.649 3.629 29.049 4.903 29.291 5.77 L 29.658 7.095 L 28.954 8.271 C 23.767 16.914 19.888 25.818 18.342 30.811 C 17.991 31.893 17.751 33.772 17.689 35.868 L 17.609 38.69 L 14.795 38.959 C 13.624 39.071 11.58 39.123 10.568 39.123 L 7.369 39.123 Z " stroke-width="1"/>
  <path id="ID0.41359106497839093" fill="#FFFFFF" d="M 9.869 36.622 L 9.869 35.922 C 9.869 33.635 10.046 31.637 10.906 29.322 C 12.923 23.829 16.346 17.102 21.315 7.569 L 19.529 7.557 C 16.936 7.539 14.856 7.525 13.227 7.525 C 10.95 7.525 9.701 7.554 9.052 7.621 C 8.581 7.649 8.403 7.793 8.254 8.238 L 7.066 12.656 L 6.465 12.585 C 5.777 12.504 4.75 12.358 3.755 12.124 L 3.123 11.975 L 4.509 3.096 L 5.108 3.096 C 5.379 3.096 5.832 3.104 6.384 3.113 C 7.249 3.128 8.365 3.146 9.427 3.146 L 25.66 3.146 L 25.849 3.548 C 26.34 4.592 26.707 5.808 26.883 6.44 L 26.963 6.73 L 26.809 6.988 C 21.517 15.807 17.544 24.936 15.955 30.072 C 15.363 31.897 15.224 34.68 15.19 35.794 L 15.172 36.411 L 14.557 36.47 C 13.515 36.57 11.571 36.623 10.568 36.623 L 9.869 36.623 Z " stroke-width="1"/>
</svg>