<svg xmlns="http://www.w3.org/2000/svg" xmlns:xlink="http://www.w3.org/1999/xlink" version="1.1" width="28.654001235961914" height="40.419002532958984" viewBox="-0.27300000190734863 -0.4009999930858612 28.654001235961914 40.419002532958984">
  <!-- Exported by Scratch - http://scratch.mit.edu/ -->
  <path id="ID0.320618549361825" fill="#51005F" d="M 14.054 39.518 C 10.613 39.518 7.241 38.203 5.038 35.999 C 1.756 32.716 0.227 28.384 0.227 22.366 C 0.227 13.773 2.969 8.611 5.269 5.793 C 8.293 2.069 12.551 0.099 17.579 0.099 C 19.351 0.099 21.442 0.218 23.506 1.102 L 25.16 1.81 L 25.414 3.59 C 25.703 5.618 25.96 7.825 26.178 10.151 L 26.446 13.05 C 26.446 13.05 23.069 13.694 22.79 13.75 C 22.228 13.862 21.634 13.98 21.019 14.081 C 22.382 14.716 23.332 15.498 23.915 16.081 C 25.803 17.852 27.881 21.324 27.881 25.593 C 27.881 30.089 26.009 34.062 22.609 36.781 C 20.338 38.597 17.46 39.518 14.054 39.518 L 14.054 39.518 Z M 10.7 24.068 C 10.784 27.377 11.71 29.036 12.282 29.751 L 12.364 29.859 C 12.585 30.167 13.244 30.883 14.6 30.883 C 15.303 30.883 16.051 30.581 16.462 30.133 C 17.175 29.349 17.606 27.945 17.606 26.388 C 17.606 23.995 16.63 22.915 16.589 22.87 C 16.131 22.35 15.429 22.091 14.6 22.091 C 13.6 22.091 11.845 22.708 10.7 24.068 L 10.7 24.068 Z M 16.487 8.933 C 15.132 8.933 13.818 9.719 12.974 11.035 C 12.504 11.778 12.094 12.62 11.745 13.557 C 13.041 13.164 14.354 12.959 15.642 12.959 C 16.325 12.959 16.964 13.004 17.562 13.085 L 16.623 8.933 C 16.58 8.933 16.534 8.933 16.487 8.933 L 16.487 8.933 Z " stroke-width="1"/>
  <path id="ID0.7824191758409142" fill="#FFFFFF" d="M 14.054 37.018 C 11.26 37.018 8.551 35.976 6.806 34.232 C 4.024 31.449 2.728 27.677 2.728 22.367 C 2.728 14.51 5.164 9.878 7.207 7.375 C 9.78 4.207 13.27 2.6 17.58 2.6 C 19.176 2.6 20.879 2.697 22.522 3.401 L 22.884 3.556 L 22.94 3.945 C 23.223 5.933 23.475 8.099 23.689 10.384 L 23.748 11.019 C 23.748 11.019 22.583 11.241 22.3 11.298 C 21.722 11.414 21.107 11.536 20.47 11.637 L 19.823 11.739 L 18.735 6.929 C 18.728 6.902 18.717 6.859 18.707 6.822 C 18.316 6.628 17.718 6.432 16.488 6.432 C 14.276 6.432 12.176 7.648 10.871 9.685 C 9.472 11.895 8.543 14.761 8.104 18.218 C 10.423 16.452 13.109 15.459 15.644 15.459 C 19.222 15.459 21.254 16.956 22.147 17.849 C 23.702 19.309 25.38 22.122 25.38 25.593 C 25.38 29.314 23.841 32.594 21.046 34.829 C 19.23 36.282 16.878 37.018 14.054 37.018 L 14.054 37.018 Z M 8.196 23.264 C 8.136 27.63 9.319 30.049 10.331 31.313 C 10.695 31.822 12.013 33.383 14.601 33.383 C 16.003 33.383 17.423 32.785 18.306 31.823 C 19.45 30.563 20.107 28.582 20.107 26.387 C 20.107 23.123 18.694 21.457 18.411 21.157 C 17.533 20.154 16.151 19.59 14.601 19.59 C 12.549 19.591 9.721 20.852 8.196 23.264 L 8.196 23.264 Z " stroke-width="1"/>
</svg>