<svg xmlns="http://www.w3.org/2000/svg" xmlns:xlink="http://www.w3.org/1999/xlink" version="1.1" width="29.64299964904785" height="40.41800308227539" viewBox="0.10800004005432129 -0.3999999985098839 29.64299964904785 40.41800308227539">
  <!-- Exported by Scratch - http://scratch.mit.edu/ -->
  <path id="ID0.18661415250971913" fill="#51005F" d="M 14.435 39.518 C 9.916 39.518 6.969 38.166 5.293 37.033 C 2.259 34.902 0.608 31.678 0.608 27.928 C 0.608 24.393 2.222 21.198 5.221 18.682 C 3.328 16.719 2.346 14.283 2.346 11.493 C 2.346 7.715 4.597 4.609 6.704 2.963 C 9.119 1.135 12.432 0.1 15.823 0.1 C 19.328 0.1 22.321 1.093 24.479 2.973 C 26.665 4.906 27.96 7.715 27.96 10.5 C 27.96 13.39 26.866 16.045 24.82 18.23 C 27.703 20.47 29.251 23.504 29.251 27.035 C 29.251 31.056 27.365 34.567 23.94 36.921 C 21.416 38.645 18.219 39.518 14.435 39.518 L 14.435 39.518 Z M 13.658 23.436 C 11.882 24.499 10.882 26.011 10.882 27.679 C 10.882 28.977 11.373 29.544 11.742 29.859 C 12.448 30.48 13.554 30.835 14.732 30.835 C 16.188 30.835 17.204 30.582 18.025 30.014 C 18.674 29.524 19.029 28.742 19.029 27.68 C 19.029 26.337 19.029 25.263 13.658 23.436 L 13.658 23.436 Z M 15.526 8.784 C 14.165 8.784 13.56 9.064 13.025 9.516 C 12.695 9.817 12.421 10.468 12.421 11.045 C 12.421 12.024 12.421 12.754 16.03 14.103 C 17.775 12.985 17.937 11.993 17.937 10.995 C 17.937 10.196 17.687 9.648 17.472 9.421 C 17.059 9.009 16.405 8.784 15.526 8.784 L 15.526 8.784 Z " stroke-width="1"/>
  <path id="ID0.94224972743541" fill="#FFFFFF" d="M 14.435 37.018 C 10.548 37.018 8.081 35.9 6.694 34.962 C 5.053 33.809 3.109 31.659 3.109 27.927 C 3.109 24.267 5.359 21.06 9.473 18.811 C 6.402 17.062 4.847 14.604 4.847 11.492 C 4.847 8.612 6.602 6.216 8.244 4.932 C 10.206 3.447 12.966 2.599 15.824 2.599 C 18.717 2.599 21.142 3.38 22.839 4.857 C 24.483 6.311 25.462 8.419 25.462 10.499 C 25.462 14.614 22.706 17.167 20.496 18.553 C 24.543 20.369 26.753 23.346 26.753 27.034 C 26.753 30.254 25.291 32.959 22.526 34.859 C 20.429 36.292 17.706 37.018 14.435 37.018 L 14.435 37.018 Z M 13.436 20.731 C 10.266 22.201 8.382 24.783 8.382 27.679 C 8.382 29.406 8.967 30.781 10.122 31.763 C 11.259 32.765 12.936 33.334 14.732 33.334 C 16.702 33.334 18.2 32.932 19.448 32.067 C 20.386 31.364 21.529 30.014 21.529 27.678 C 21.529 24.312 19.706 22.732 13.436 20.731 L 13.436 20.731 Z M 15.526 6.284 C 13.739 6.284 12.507 6.68 11.411 7.608 C 10.498 8.434 9.921 9.757 9.921 11.046 C 9.921 13.836 11.354 15.16 16.269 16.843 C 19.188 15.344 20.438 13.583 20.438 10.996 C 20.438 9.675 20.019 8.475 19.29 7.704 C 18.351 6.766 17.08 6.284 15.526 6.284 L 15.526 6.284 Z " stroke-width="1"/>
</svg>