<svg xmlns="http://www.w3.org/2000/svg" xmlns:xlink="http://www.w3.org/1999/xlink" version="1.1" width="81.9" height="96.44082489013672" viewBox="0.050000000000000044 0.9500000953674317 81.9 96.44082489013672">
  <!-- Exported by Scratch - http://scratch.mit.edu/ -->
  <g id="ID0.5207560155540705">
    <g id="Layer_3_1_">
      <path id="ID0.8535828334279358_1_" fill="#FAA51F" d="M 27.05 71.45 C 24.75 70.45 22.15 68.95 20.25 66.15 C 16.05 59.95 16.25 51.45 11.95 52.65 C 7.65 53.85 4.65 67.05 15.65 73.85 C 19.45 76.25 23.25 77.15 26.25 77.75 C 27.05 77.95 34.05 78.85 37.15 75.95 C 40.25 73.05 38.85 71.85 38.15 71.15 C 37.45 70.55 30.25 72.95 27.05 71.45 Z " stroke-width="1"/>
      <path id="ID0.914295740891248_1_" fill="#FFFFFF" d="M 12.15 52.55 C 10.05 52.75 7.75 57.25 7.85 60.95 C 8.05 64.65 9.45 67.25 10.35 68.85 C 11.65 70.25 10.35 65.75 12.85 64.45 C 15.35 63.15 19.25 64.75 19.25 64.75 C 19.25 64.75 17.15 59.75 16.05 56.95 C 15.15 54.35 14.35 52.55 12.15 52.55 Z " stroke-width="1"/>
      <path id="ID0.40227043256163597_1_" fill="none" stroke="#8E5322" stroke-width="1.4" stroke-linecap="round" stroke-linejoin="round" d="M 27.05 71.45 C 24.75 70.45 22.15 68.95 20.25 66.15 C 16.05 59.95 16.25 51.45 11.95 52.65 C 7.65 53.85 4.65 67.05 15.65 73.85 C 19.45 76.25 23.25 77.15 26.25 77.75 C 27.05 77.95 34.05 78.85 37.15 75.95 C 40.25 73.05 38.85 71.85 38.15 71.15 C 37.45 70.55 30.25 72.95 27.05 71.45 Z "/>
    </g>
    <path id="ID0.26344340899959207_1_" fill="#518943" stroke="#426C36" stroke-width="1.4" stroke-linecap="round" stroke-linejoin="round" d="M 21.45 58.55 C 21.45 58.55 19.25 74.65 21.45 77.55 C 24.65 81.75 39.15 82.05 41.35 79.55 C 45.05 75.25 43.75 76.45 43.75 76.45 L 44.75 61.85 L 21.45 58.55 Z "/>
    <path id="ID0.2414738917723298_1_" fill="#FEFBDF" stroke="#70715E" stroke-width="1.4" stroke-linecap="round" stroke-linejoin="round" d="M 24.55 46.55 C 25.95 46.55 27.25 47.35 28.25 48.75 C 29.15 50.05 29.75 51.95 29.75 53.95 C 29.75 55.95 29.15 57.85 28.25 59.15 C 27.35 60.45 26.05 61.35 24.55 61.35 C 23.05 61.35 21.85 60.55 20.85 59.15 C 19.95 57.85 19.35 55.95 19.35 53.95 C 19.35 51.95 19.95 50.05 20.85 48.75 C 21.85 47.35 23.15 46.55 24.55 46.55 Z "/>
    <path id="ID0.6192030962556601_1_" fill="#FEFBDF" stroke="#70715E" stroke-width="1.4" stroke-linecap="round" stroke-linejoin="round" d="M 24.55 49.85 C 25.35 49.85 26.05 50.35 26.55 51.05 C 27.05 51.75 27.35 52.85 27.35 53.95 C 27.35 55.05 27.05 56.15 26.55 56.85 C 26.05 57.55 25.35 58.05 24.55 58.05 C 23.75 58.05 23.05 57.55 22.55 56.85 C 22.05 56.15 21.75 55.05 21.75 53.95 C 21.75 52.85 22.05 51.75 22.55 51.05 C 23.15 50.25 23.85 49.85 24.55 49.85 Z "/>
    <path id="ID0.15330331353470683_1_" fill="#518943" stroke="#426C36" stroke-width="1.4" stroke-linecap="round" stroke-linejoin="round" d="M 29.45 78.25 L 29.95 70.55 L 23.45 69.25 C 23.45 69.25 22.75 75.15 23.75 76.05 C 24.65 76.85 29.45 78.25 29.45 78.25 Z "/>
    <g id="ID0.2669722530990839">
      <g id="ID0.16171270422637463_1_">
        <path id="ID0.007584026083350182_1_" fill="#FAA51F" stroke="#8E5322" stroke-width="1.4" stroke-linecap="round" stroke-linejoin="round" d="M 51.45 73.65 C 51.45 73.65 49.75 79.15 50.55 87.95 C 50.85 91.75 57.95 87.45 57.45 94.85 C 57.25 96.95 48.05 96.75 45.95 95.95 C 44.05 95.25 43.55 94.55 43.85 92.55 C 44.95 85.25 41.25 76.85 41.25 76.85 "/>
        <path id="ID0.31672530295327306_1_" fill="#FAA51F" stroke="#8E5322" stroke-width="1.4" stroke-linecap="round" stroke-linejoin="round" d="M 52.55 89.75 C 52.55 89.75 51.25 89.55 49.75 89.85 "/>
      </g>
      <g id="Layer_2_2_">
        <path id="ID0.39854341372847557_1_" fill="#FAA51F" stroke="#8E5322" stroke-width="1.4" stroke-linecap="round" stroke-linejoin="round" d="M 42.25 71.55 "/>
      </g>
      <path id="ID0.46792364912107587_1_" fill="#FAA51F" stroke="#8E5322" stroke-width="1.4" stroke-linecap="round" stroke-linejoin="round" d="M 52.25 62.75 C 52.25 69.45 53.95 79.25 42.05 79.25 C 30.15 79.25 31.25 70.25 31.25 63.55 C 31.25 56.85 35.35 55.05 42.05 55.05 C 48.75 55.05 52.25 56.05 52.25 62.75 Z "/>
      <path id="ID0.38032895559445024_1_" fill="#FFFFFF" d="M 49.65 65.65 C 49.65 69.85 50.55 76.15 44.15 76.15 C 37.75 76.15 38.25 70.45 38.25 66.25 C 38.25 62.05 40.45 60.85 44.15 60.85 C 47.85 60.85 49.65 61.45 49.65 65.65 Z " stroke-width="1"/>
      <g id="ID0.15723733883351088_3_">
        <path id="ID0.527006761636585_3_" fill="#FAA51F" stroke="#8E5322" stroke-width="1.4" stroke-linecap="round" stroke-linejoin="round" d="M 32.05 73.65 C 32.05 73.65 34.65 79.15 33.35 87.85 C 32.75 91.65 27.15 86.95 27.55 94.55 C 27.65 97.05 35.25 96.85 37.45 96.45 C 39.55 96.05 40.35 94.95 40.15 92.85 C 39.85 88.65 41.35 79.55 41.35 79.55 "/>
        <path id="ID0.8937406223267317_3_" fill="#FAA51F" stroke="#8E5322" stroke-width="1.4" stroke-linecap="round" stroke-linejoin="round" d="M 30.95 89.65 C 30.95 89.65 32.55 89.45 33.95 89.85 "/>
      </g>
      <g id="ID0.7407716196030378_1_">
        <path id="ID0.15909873321652412_1_" fill="#FAA51F" stroke="#8E5322" stroke-width="1.4" stroke-linecap="round" stroke-linejoin="round" d="M 25.55 72.95 C 21.45 70.65 25.15 59.95 31.95 54.55 L 39.85 55.95 "/>
        <path id="ID0.8024068027734756_1_" fill="#FAA51F" stroke="#8E5322" stroke-width="1.4" stroke-linecap="round" stroke-linejoin="round" d="M 31.65 66.45 "/>
        <path id="ID0.06734407460317016_1_" fill="none" stroke="#8E5322" stroke-width="1.4" stroke-linecap="round" stroke-linejoin="round" d="M 34.75 64.65 "/>
        <path id="ID0.8143284288235009_1_" fill="#FAA51F" stroke="#8E5322" stroke-width="1.4" stroke-linecap="round" stroke-linejoin="round" d="M 31.65 66.45 L 34.35 62.35 "/>
        <path id="ID0.6682511982508004_1_" fill="none" stroke="#8E5322" stroke-width="1.4" stroke-linecap="round" stroke-linejoin="round" d="M 31.65 66.45 L 30.45 66.15 "/>
      </g>
      <g id="ID0.32291418174281716_1_">
        <path id="ID0.30105241015553474_1_" fill="#FAA51F" stroke="#8E5322" stroke-width="1.4" stroke-linecap="round" stroke-linejoin="round" d="M 58.55 71.95 C 63.75 68.05 58.45 59.25 53.05 56.45 L 48.85 57.15 "/>
        <path id="ID0.3822403196245432_1_" fill="#FAA51F" stroke="#8E5322" stroke-width="1.4" stroke-linecap="round" stroke-linejoin="round" d="M 53.35 66.45 "/>
        <path id="ID0.5879319808445871_1_" fill="none" stroke="#8E5322" stroke-width="1.4" stroke-linecap="round" stroke-linejoin="round" d="M 50.75 64.95 "/>
        <path id="ID0.7841392233967781_1_" fill="#FAA51F" stroke="#8E5322" stroke-width="1.4" stroke-linecap="round" stroke-linejoin="round" d="M 53.35 66.45 L 52.25 62.75 "/>
        <path id="ID0.4326359131373465_1_" fill="none" stroke="#8E5322" stroke-width="1.4" stroke-linecap="round" stroke-linejoin="round" d="M 53.35 66.45 L 54.45 66.15 "/>
      </g>
      <path id="ID0.48627097019925714_1_" fill="#518943" stroke="#426C36" stroke-width="1.4" stroke-linecap="round" stroke-linejoin="round" d="M 32.15 79.15 C 36.45 77.45 50.65 61.95 32.25 56.85 C 32.25 56.85 47.15 62.05 31.45 76.25 "/>
      <path id="ID0.07006075512617826_1_" fill="#518943" stroke="#426C36" stroke-width="1.4" stroke-linecap="round" stroke-linejoin="round" d="M 53.75 70.85 C 55.85 65.55 56.85 59.55 45.35 56.85 C 45.35 56.85 55.95 60.75 51.75 69.55 "/>
      <g id="Layer_2_1_">
        <path id="ID0.2591130444779992_1_" fill="#FAA51F" d="M 42.25 9.85 C 40.75 9.75 37.65 9.55 35.95 9.65 C 31.35 9.85 27.05 11.55 27.05 11.55 L 14.45 3.35 L 16.65 21.65 C 17.25 20.85 6.45 34.05 13.25 45.05 C 20.15 56.15 34.75 61.05 52.95 57.45 C 71.15 53.85 75.45 43.35 74.25 37.85 C 73.05 32.35 66.15 30.25 66.15 30.25 C 66.15 30.25 66.05 25.95 62.95 20.65 C 61.05 17.45 54.85 12.85 54.85 12.85 L 52.05 1.65 L 44.85 8.65 L 42.25 9.85 Z " stroke-width="1"/>
        <path id="ID0.3588979784399271_1_" fill="#FFFFFF" d="M 65.25 30.15 L 62.85 28.15 L 54.05 30.75 C 54.05 30.75 54.05 34.05 49.85 34.95 C 45.65 35.85 38.55 34.25 38.55 34.25 L 31.45 36.05 C 31.45 36.05 23.35 35.55 22.95 41.95 C 22.25 53.05 31.55 58.35 40.05 58.25 C 45.55 58.25 49.05 57.55 52.95 56.85 C 70.15 53.75 75.05 43.35 73.55 37.85 C 72.35 32.35 65.75 30.75 65.75 30.75 L 65.25 30.15 Z " stroke-width="1"/>
        <path id="ID0.2727069961838424_1_" fill="none" stroke="#8E5322" stroke-width="1.4" stroke-linecap="round" stroke-linejoin="round" d="M 70.25 35.55 C 70.25 35.55 74.65 34.85 76.85 34.05 C 79.45 33.15 81.25 31.55 81.25 31.55 "/>
        <path id="ID0.5861211125738919_1_" fill="none" stroke="#8E5322" stroke-width="1.4" stroke-linecap="round" stroke-linejoin="round" d="M 70.75 41.35 C 70.75 41.35 73.35 42.45 76.15 42.65 C 78.85 42.95 80.65 42.75 80.65 42.75 "/>
        <path id="ID0.4793355236761272_1_" fill="none" stroke="#8E5322" stroke-width="1.4" stroke-linecap="round" stroke-linejoin="round" d="M 24.75 10.05 L 29.95 13.65 "/>
        <path id="ID0.48413723474368453_1_" fill="none" stroke="#8E5322" stroke-width="1.4" stroke-linecap="round" stroke-linejoin="round" d="M 42.25 9.85 C 40.75 9.75 37.65 9.55 35.95 9.65 C 31.35 9.85 27.05 11.55 27.05 11.55 L 14.45 3.35 L 16.65 21.65 C 17.25 20.85 6.45 34.05 13.25 45.05 C 20.15 56.15 34.75 61.05 52.95 57.45 C 71.15 53.85 75.45 43.35 74.25 37.85 C 73.05 32.35 66.15 30.25 66.15 30.25 C 66.15 30.25 66.05 25.95 62.95 20.65 C 61.05 17.45 54.85 12.85 54.85 12.85 L 52.05 1.65 L 44.85 8.65 L 42.25 9.85 Z "/>
        <path id="ID0.9024141579866409_1_" fill="none" stroke="#8E5322" stroke-width="1.4" stroke-linecap="round" stroke-linejoin="round" d="M 1.55 40.85 C 1.55 40.85 5.55 41.25 7.35 41.15 C 9.15 41.05 12.65 40.55 12.65 40.55 "/>
        <path id="ID0.16030752705410123_1_" fill="none" stroke="#8E5322" stroke-width="1.4" stroke-linecap="round" stroke-linejoin="round" d="M 12.85 36.75 C 12.85 36.75 10.55 35.05 6.95 33.45 C 2.95 31.65 0.75 31.25 0.75 31.25 "/>
      </g>
      <g id="Layer_5_1_">
        <path id="ID0.40023312577977777_1_" fill="#FFFFFF" stroke="#8E5322" stroke-width="1.4" stroke-linecap="round" stroke-linejoin="round" d="M 60.75 20.75 C 63.55 25.05 63.65 30.05 60.95 31.75 C 58.25 33.55 53.75 31.45 50.95 27.05 C 48.15 22.75 48.05 17.75 50.75 16.05 C 53.45 14.35 57.95 16.45 60.75 20.75 Z "/>
        <path id="ID0.43813491938635707_1_" fill="#414142" d="M 60.65 24.35 C 60.95 25.35 60.45 26.35 59.45 26.65 C 58.55 26.95 57.55 26.35 57.25 25.25 C 56.95 24.25 57.45 23.25 58.45 22.95 C 59.45 22.75 60.35 23.35 60.65 24.35 " stroke-width="1"/>
      </g>
      <g id="Layer_7_1_">
        <path id="ID0.4253597157076001_1_" fill="#FFFFFF" stroke="#8E5322" stroke-width="1.4" stroke-linecap="round" stroke-linejoin="round" d="M 37.55 23.85 C 40.35 28.15 40.05 33.35 36.85 35.45 C 33.65 37.55 28.75 35.75 25.95 31.35 C 23.15 27.05 23.45 21.85 26.65 19.75 C 29.85 17.75 34.75 19.55 37.55 23.85 Z "/>
        <path id="ID0.814307457767427_1_" fill="#414142" d="M 37.25 27.75 C 37.25 28.75 36.45 29.65 35.55 29.65 C 34.55 29.65 33.85 28.85 33.85 27.75 C 33.85 26.75 34.65 25.85 35.55 25.85 C 36.45 25.85 37.25 26.65 37.25 27.75 " stroke-width="1"/>
      </g>
      <path id="ID0.5240494590252638_1_" fill="#5F4B43" stroke="#8E5322" stroke-width="1.4" stroke-linecap="round" stroke-linejoin="round" d="M 48.55 33.75 C 50.25 33.55 52.55 32.25 52.85 34.15 C 52.85 34.95 51.25 38.25 49.45 38.35 C 47.45 38.45 43.95 35.95 44.05 34.45 C 44.15 32.95 47.05 33.95 48.55 33.75 Z "/>
      <path id="ID0.046259244438260794_1_" fill="#FFFFFF" stroke="#8E5322" stroke-width="1.4" stroke-linecap="round" stroke-linejoin="round" d="M 39.45 49.15 C 39.45 49.15 41.95 51.45 47.35 50.35 "/>
      <path id="ID0.1790580078959465_1_" fill="#FAA51F" stroke="#8E5322" stroke-width="1.4" stroke-linecap="round" stroke-linejoin="round" d="M 30.45 66.15 C 36.05 64.35 39.05 67.45 38.95 69.15 C 38.75 73.15 34.15 74.95 25.65 73.05 "/>
    </g>
    <path id="ID0.7947451807558537_1_" fill="#FAA51F" stroke="#8E5322" stroke-width="1.4" stroke-linecap="round" stroke-linejoin="round" d="M 56.35 66.45 C 53.15 65.05 51.65 67.35 50.75 69.55 C 49.45 72.65 53.35 76.25 58.55 71.95 "/>
  </g>
</svg>