<svg xmlns="http://www.w3.org/2000/svg" xmlns:xlink="http://www.w3.org/1999/xlink" version="1.1" width="29.14299964904785" height="39.97200012207031" viewBox="-0.2639999985694885 -0.3999999985098839 29.14299964904785 39.97200012207031">
  <!-- Exported by Scratch - http://scratch.mit.edu/ -->
  <path id="ID0.25756920455023646" fill="#51005F" d="M 24.98 39.072 C 24.169 39.072 22.377 39.063 20.29 39.052 C 17.392 39.038 13.918 39.022 11.724 39.022 L 2.426 39.022 L 1.637 36.97 C 1.391 36.329 1.118 35.533 0.87 34.729 L 0.236 32.68 L 1.893 31.316 C 5.534 28.316 7.845 26.337 10.375 23.855 C 13.518 20.81 17.112 16.815 17.112 12.833 C 17.112 10.718 16.439 10.018 16.217 9.788 C 15.882 9.422 14.848 8.982 13.658 8.982 C 12.797 8.982 12.007 9.159 11.448 9.393 L 9.966 16.245 L 1.37 15.259 L 1.89 9.079 C 2.002 7.719 2.115 6.357 2.229 5.058 L 2.376 3.366 L 3.862 2.54 C 5.984 1.359 9.775 0.1 14.057 0.1 C 17.954 0.1 20.993 1.01 23.347 2.881 C 26.129 5.209 27.635 8.571 27.635 12.387 C 27.635 20.326 20.523 27.08 17.664 29.746 C 20.325 29.722 23.04 29.687 24.958 29.643 L 28.379 29.64 L 28.379 32.842 C 28.379 34.005 28.264 35.251 28.163 36.206 L 27.859 39.071 L 24.98 39.071 Z " stroke-width="1"/>
  <path id="ID0.6694170581176877" fill="#FFFFFF" d="M 24.98 36.572 C 24.171 36.572 22.384 36.563 20.302 36.552 C 17.399 36.538 13.92 36.522 11.723 36.522 L 4.142 36.522 L 3.969 36.073 C 3.744 35.488 3.491 34.75 3.258 33.992 L 3.119 33.545 L 3.481 33.246 C 7.177 30.2 9.529 28.187 12.126 25.641 C 15.613 22.261 19.612 17.755 19.612 12.834 C 19.612 10.733 19.091 9.171 18.019 8.056 C 17.156 7.11 15.409 6.483 13.659 6.483 C 11.894 6.483 10.185 7.008 9.198 7.854 C 9.204 7.85 9.208 7.847 9.211 7.847 C 9.224 7.847 9.208 7.899 9.186 8.034 L 8.002 13.504 L 4.065 13.052 L 4.381 9.288 C 4.493 7.929 4.606 6.57 4.719 5.275 L 4.751 4.905 L 5.076 4.724 C 6.841 3.744 10.25 2.6 14.057 2.6 C 17.367 2.6 19.897 3.332 21.791 4.838 C 23.952 6.647 25.135 9.324 25.135 12.387 C 25.135 19.366 18.371 25.67 15.825 28.043 C 14.131 29.697 12.568 31.07 11.153 32.289 C 14.863 32.275 21.392 32.226 25.014 32.143 L 25.878 32.143 L 25.878 32.843 C 25.878 33.897 25.77 35.055 25.676 35.946 L 25.61 36.573 L 24.98 36.573 Z " stroke-width="1"/>
</svg>