<svg xmlns="http://www.w3.org/2000/svg" xmlns:xlink="http://www.w3.org/1999/xlink" version="1.1" width="54.231668853759764" height="51.390829467773436" viewBox="-0.1285190105438232 -1.1920928910669204e-8 54.231668853759764 51.390829467773436">
  <!-- Exported by Scratch - http://scratch.mit.edu/ -->
  <g id="Layer_3_1_">
    <path id="ID0.8535828334279358_1_" fill="#FAA51F" d="M 34.2 25.45 C 36.5 24.45 39.1 22.95 41 20.15 C 45.2 13.95 45 5.45 49.3 6.65 C 53.6 7.85 56.6 21.05 45.6 27.85 C 41.8 30.25 38 31.15 35 31.75 C 34.2 31.95 27.2 32.85 24.1 29.95 C 21 27.05 22.4 25.85 23.1 25.15 C 23.8 24.55 31 26.95 34.2 25.45 Z " stroke-width="1"/>
    <path id="ID0.914295740891248_1_" fill="#FFFFFF" d="M 49.1 6.55 C 51.2 6.75 53.5 11.25 53.4 14.95 C 53.2 18.65 51.8 21.25 50.9 22.85 C 49.6 24.25 50.9 19.75 48.4 18.45 C 45.9 17.15 42 18.75 42 18.75 C 42 18.75 44.1 13.75 45.2 10.95 C 46.1 8.35 46.9 6.55 49.1 6.55 Z " stroke-width="1"/>
    <path id="ID0.40227043256163597_1_" fill="none" stroke="#8E5322" stroke-width="1.4" stroke-linecap="round" stroke-linejoin="round" d="M 34.2 25.45 C 36.5 24.45 39.1 22.95 41 20.15 C 45.2 13.95 45 5.45 49.3 6.65 C 53.6 7.85 56.6 21.05 45.6 27.85 C 41.8 30.25 38 31.15 35 31.75 C 34.2 31.95 27.2 32.85 24.1 29.95 C 21 27.05 22.4 25.85 23.1 25.15 C 23.8 24.55 31 26.95 34.2 25.45 Z "/>
  </g>
  <path id="ID0.26344340899959207_1_" fill="#518943" stroke="#426C36" stroke-width="1.4" stroke-linecap="round" stroke-linejoin="round" d="M 39.8 12.7 C 39.8 12.7 42 28.8 39.8 31.7 C 36.6 35.9 22.1 36.2 19.9 33.7 C 16.2 29.4 17.5 30.6 17.5 30.6 L 16.5 16 L 39.8 12.7 Z "/>
  <path id="ID0.2414738917723298_1_" fill="#FEFBDF" stroke="#70715E" stroke-width="1.4" stroke-linecap="round" stroke-linejoin="round" d="M 36.7 0.7 C 35.3 0.7 34 1.5 33 2.9 C 32.1 4.2 31.5 6.1 31.5 8.1 C 31.5 10.1 32.1 12 33 13.3 C 33.9 14.6 35.2 15.5 36.7 15.5 C 38.2 15.5 39.4 14.7 40.4 13.3 C 41.3 12 41.9 10.1 41.9 8.1 C 41.9 6.1 41.3 4.2 40.4 2.9 C 39.4 1.5 38.1 0.7 36.7 0.7 Z "/>
  <path id="ID0.6192030962556601_1_" fill="#FEFBDF" stroke="#70715E" stroke-width="1.4" stroke-linecap="round" stroke-linejoin="round" d="M 36.7 4 C 35.9 4 35.2 4.5 34.7 5.2 C 34.2 5.9 33.9 7 33.9 8.1 C 33.9 9.2 34.2 10.3 34.7 11 C 35.2 11.7 35.9 12.2 36.7 12.2 C 37.5 12.2 38.2 11.7 38.7 11 C 39.2 10.3 39.5 9.2 39.5 8.1 C 39.5 7 39.2 5.9 38.7 5.2 C 38.1 4.4 37.4 4 36.7 4 Z "/>
  <path id="ID0.15330331353470683_1_" fill="#518943" stroke="#426C36" stroke-width="1.4" stroke-linecap="round" stroke-linejoin="round" d="M 31.8 32.4 L 31.3 24.7 L 37.8 23.4 C 37.8 23.4 38.5 29.3 37.5 30.2 C 36.6 31 31.8 32.4 31.8 32.4 Z "/>
  <g id="ID0.16171270422637463_1_">
    <path id="ID0.007584026083350182_1_" fill="#FAA51F" stroke="#8E5322" stroke-width="1.4" stroke-linecap="round" stroke-linejoin="round" d="M 9.8 27.65 C 9.8 27.65 11.5 33.15 10.7 41.95 C 10.4 45.75 3.3 41.45 3.8 48.85 C 4 50.95 13.2 50.75 15.3 49.95 C 17.2 49.25 17.7 48.55 17.4 46.55 C 16.3 39.25 20 30.85 20 30.85 "/>
    <path id="ID0.31672530295327306_1_" fill="#FAA51F" stroke="#8E5322" stroke-width="1.4" stroke-linecap="round" stroke-linejoin="round" d="M 8.7 43.75 C 8.7 43.75 10 43.55 11.5 43.85 "/>
  </g>
  <g id="Layer_2_2_">
    <path id="ID0.39854341372847557_1_" fill="#FAA51F" stroke="#8E5322" stroke-width="1.4" stroke-linecap="round" stroke-linejoin="round" d="M 19.25 33.55 "/>
  </g>
  <path id="ID0.46792364912107587_1_" fill="#FAA51F" stroke="#8E5322" stroke-width="1.4" stroke-linecap="round" stroke-linejoin="round" d="M 9 16.9 C 9 23.6 7.3 33.4 19.2 33.4 C 31.1 33.4 30 24.4 30 17.7 C 30 11 25.9 9.2 19.2 9.2 C 12.5 9.2 9 10.2 9 16.9 Z "/>
  <path id="ID0.38032895559445024_1_" fill="#FFFFFF" d="M 11.6 19.8 C 11.6 24 10.7 30.3 17.1 30.3 C 23.5 30.3 23 24.6 23 20.4 C 23 16.2 20.8 15 17.1 15 C 13.4 15 11.6 15.6 11.6 19.8 Z " stroke-width="1"/>
  <g id="ID0.15723733883351088_3_">
    <path id="ID0.527006761636585_3_" fill="#FAA51F" stroke="#8E5322" stroke-width="1.4" stroke-linecap="round" stroke-linejoin="round" d="M 29.2 27.65 C 29.2 27.65 26.6 33.15 27.9 41.85 C 28.5 45.65 34.1 40.95 33.7 48.55 C 33.6 51.05 26 50.85 23.8 50.45 C 21.7 50.05 20.9 48.95 21.1 46.85 C 21.4 42.65 19.9 33.55 19.9 33.55 "/>
    <path id="ID0.8937406223267317_3_" fill="#FAA51F" stroke="#8E5322" stroke-width="1.4" stroke-linecap="round" stroke-linejoin="round" d="M 30.3 43.65 C 30.3 43.65 28.7 43.45 27.3 43.85 "/>
  </g>
  <g id="ID0.7407716196030378_1_">
    <path id="ID0.15909873321652412_1_" fill="#FAA51F" stroke="#8E5322" stroke-width="1.4" stroke-linecap="round" stroke-linejoin="round" d="M 35.7 26.95 C 39.8 24.65 36.1 13.95 29.3 8.55 L 21.4 9.95 "/>
    <path id="ID0.8024068027734756_1_" fill="#FAA51F" stroke="#8E5322" stroke-width="1.4" stroke-linecap="round" stroke-linejoin="round" d="M 29.6 20.45 "/>
    <path id="ID0.06734407460317016_1_" fill="none" stroke="#8E5322" stroke-width="1.4" stroke-linecap="round" stroke-linejoin="round" d="M 26.5 18.65 "/>
    <path id="ID0.8143284288235009_1_" fill="#FAA51F" stroke="#8E5322" stroke-width="1.4" stroke-linecap="round" stroke-linejoin="round" d="M 29.6 20.45 L 26.9 16.35 "/>
    <path id="ID0.6682511982508004_1_" fill="none" stroke="#8E5322" stroke-width="1.4" stroke-linecap="round" stroke-linejoin="round" d="M 29.6 20.45 L 30.8 20.15 "/>
  </g>
  <g id="ID0.32291418174281716_1_">
    <path id="ID0.30105241015553474_1_" fill="#FAA51F" stroke="#8E5322" stroke-width="1.4" stroke-linecap="round" stroke-linejoin="round" d="M 2.7 25.95 C -2.5 22.05 2.8 13.25 8.2 10.45 L 12.4 11.15 "/>
    <path id="ID0.3822403196245432_1_" fill="#FAA51F" stroke="#8E5322" stroke-width="1.4" stroke-linecap="round" stroke-linejoin="round" d="M 7.9 20.45 "/>
    <path id="ID0.5879319808445871_1_" fill="none" stroke="#8E5322" stroke-width="1.4" stroke-linecap="round" stroke-linejoin="round" d="M 10.5 18.95 "/>
    <path id="ID0.7841392233967781_1_" fill="#FAA51F" stroke="#8E5322" stroke-width="1.4" stroke-linecap="round" stroke-linejoin="round" d="M 7.9 20.45 L 9 16.75 "/>
    <path id="ID0.4326359131373465_1_" fill="none" stroke="#8E5322" stroke-width="1.4" stroke-linecap="round" stroke-linejoin="round" d="M 7.9 20.45 L 6.8 20.15 "/>
  </g>
  <path id="ID0.48627097019925714_1_" fill="#518943" stroke="#426C36" stroke-width="1.4" stroke-linecap="round" stroke-linejoin="round" d="M 29.1 33.3 C 24.8 31.6 10.6 16.1 29 11 C 29 11 14.1 16.2 29.8 30.4 "/>
  <path id="ID0.07006075512617826_1_" fill="#518943" stroke="#426C36" stroke-width="1.4" stroke-linecap="round" stroke-linejoin="round" d="M 7.5 25 C 5.4 19.7 4.4 13.7 15.9 11 C 15.9 11 5.3 14.9 9.5 23.7 "/>
  <path id="ID0.1790580078959465_1_" fill="#FAA51F" stroke="#8E5322" stroke-width="1.4" stroke-linecap="round" stroke-linejoin="round" d="M 30.8 20.3 C 25.2 18.5 22.2 21.6 22.3 23.3 C 22.5 27.3 27.1 29.1 35.6 27.2 "/>
  <path id="ID0.7947451807558537_1_" fill="#FAA51F" stroke="#8E5322" stroke-width="1.4" stroke-linecap="round" stroke-linejoin="round" d="M 4.9 20.6 C 8.1 19.2 9.6 21.5 10.5 23.7 C 11.8 26.8 7.9 30.4 2.7 26.1 "/>
</svg>