<svg xmlns="http://www.w3.org/2000/svg" xmlns:xlink="http://www.w3.org/1999/xlink" version="1.1" width="28.602001190185547" height="40.41800308227539" viewBox="0.04300004243850708 -0.3999999985098839 28.602001190185547 40.41800308227539">
  <!-- Exported by Scratch - http://scratch.mit.edu/ -->
  <path id="ID0.15083527518436313" fill="#51005F" d="M 10.943 39.518 C 9.1 39.518 7.025 39.304 5.393 38.948 L 3.327 38.497 L 2.933 36.418 C 2.581 34.578 2.145 32.285 1.779 30.094 L 1.315 27.299 L 4.029 26.498 C 5.098 26.182 6.175 25.955 7.142 25.842 L 8.639 25.665 C 7.077 25.117 5.647 24.285 4.501 23.227 C 1.98 20.86 0.543 17.511 0.543 14.024 C 0.543 9.622 2.319 5.832 5.68 3.064 C 8.043 1.148 11.159 0.1 14.468 0.1 C 18.172 0.1 21.33 1.375 23.601 3.789 C 26.625 7.115 28.145 11.801 28.145 17.749 C 28.145 24.393 26.355 30.351 23.233 34.098 C 20.216 37.743 16.193 39.518 10.943 39.518 L 10.943 39.518 Z M 11.392 30.796 C 11.6 30.818 11.81 30.834 11.987 30.834 C 13.807 30.834 15.11 29.627 15.592 28.914 C 16.193 28.005 16.636 26.942 16.961 25.873 C 15.695 26.234 14.379 26.409 12.979 26.409 C 11.966 26.409 10.953 26.286 9.97 26.054 L 11.392 30.796 Z M 11.763 16.732 C 12.127 17.097 12.94 17.478 13.922 17.478 C 15.24 17.478 16.617 16.861 17.666 15.832 C 17.549 12.987 16.734 10.623 16.129 9.77 C 15.588 9.05 14.966 8.735 14.022 8.735 C 13.233 8.735 12.589 8.988 12.11 9.487 C 11.459 10.119 10.867 11.632 10.867 13.429 C 10.866 15.348 11.336 16.207 11.763 16.732 L 11.763 16.732 Z " stroke-width="1"/>
  <path id="ID0.18434273917227983" fill="#FFFFFF" d="M 10.943 37.018 C 9.268 37.018 7.393 36.826 5.927 36.505 L 5.475 36.406 L 5.389 35.952 C 5.02 34.016 4.602 31.822 4.244 29.681 L 4.142 29.07 L 4.736 28.894 C 5.669 28.62 6.601 28.421 7.434 28.324 L 8.018 28.256 L 9.357 32.722 C 9.416 32.821 9.507 32.928 9.548 32.96 C 9.894 33.125 11.142 33.335 11.985 33.335 C 14.667 33.335 16.718 31.709 17.661 30.316 C 19.515 27.513 20.109 23.761 20.297 21.433 C 17.94 23.16 15.693 23.91 12.978 23.91 C 10.441 23.91 7.906 22.969 6.198 21.39 C 4.192 19.507 3.044 16.823 3.044 14.024 C 3.044 10.394 4.506 7.271 7.271 4.993 C 9.176 3.448 11.731 2.599 14.469 2.599 C 17.466 2.599 19.994 3.602 21.781 5.501 C 24.348 8.324 25.646 12.442 25.646 17.748 C 25.646 23.815 24.067 29.19 21.313 32.496 C 18.76 35.581 15.464 37.018 10.943 37.018 L 10.943 37.018 Z M 14.021 6.234 C 12.545 6.234 11.26 6.76 10.305 7.756 C 9.119 8.902 8.366 11.121 8.366 13.428 C 8.366 15.575 8.85 17.152 9.89 18.39 C 10.783 19.36 12.335 19.977 13.921 19.977 C 16.249 19.977 18.627 18.75 20.178 16.762 C 20.224 13.144 19.212 9.795 18.167 8.323 C 17.117 6.922 15.758 6.234 14.021 6.234 L 14.021 6.234 Z " stroke-width="1"/>
</svg>